<svg width="410" height="464" viewBox="0 0 410 464" fill="none" xmlns="http://www.w3.org/2000/svg">
<path d="M66.3447 114.633C66.1198 114.403 65.8949 114.168 65.6657 113.938C64.5502 112.795 63.8227 112.171 63.4743 112.064C63.1304 111.963 62.6587 112.025 62.0679 112.255C61.4859 112.481 61.1287 112.529 60.9964 112.397C60.8201 112.219 61.2345 111.617 62.2619 110.607C63.8712 109.026 65.4981 107.476 67.1427 105.957C69.8411 103.472 72.0588 102.436 73.6946 102.75C74.3207 102.87 74.8233 103.158 75.2069 103.614C75.9917 104.544 75.8991 105.895 74.9732 107.675C74.7484 108.123 74.6469 108.362 74.6734 108.393C74.6999 108.424 74.9291 108.335 75.37 108.131C76.6134 107.551 77.6672 107.272 78.5269 107.268C79.3823 107.268 80.0922 107.604 80.6565 108.278C80.7182 108.353 80.78 108.428 80.8417 108.499C81.1592 108.88 81.3399 109.398 81.3884 110.049C81.4369 110.7 81.2826 111.44 80.9343 112.268C80.3655 113.619 79.1839 115.09 77.3982 116.724C77.1028 116.994 76.8074 117.269 76.512 117.543C76.415 117.627 76.3224 117.712 76.2254 117.796C75.3744 118.589 74.5323 119.39 73.6946 120.205C73.3286 120.564 72.9671 120.923 72.6011 121.286C72.4292 121.454 72.2572 121.622 72.0853 121.795C71.4945 122.38 71.1153 122.588 70.9433 122.415C70.8199 122.291 70.8728 121.941 71.102 121.366C71.3313 120.79 71.3534 120.28 71.1682 119.838C70.983 119.395 70.0835 118.34 68.4698 116.684C68.2626 116.489 68.0598 116.29 67.8526 116.095C67.5836 115.834 67.3147 115.572 67.0457 115.311C66.9752 115.249 66.909 115.183 66.8385 115.121C66.6974 114.988 66.5298 114.824 66.3358 114.629L66.3447 114.633ZM78.1081 110.917C78.0111 110.807 77.9141 110.696 77.8171 110.585C77.2439 109.921 76.4194 109.69 75.348 109.912C74.2766 110.129 73.1258 110.798 71.9133 111.918C71.684 112.131 71.4548 112.343 71.2299 112.556C71.0359 112.769 70.8816 112.928 70.767 113.034C70.4098 113.371 70.5024 113.823 71.0403 114.394C71.1109 114.469 71.177 114.54 71.2475 114.616C71.274 114.633 71.3005 114.655 71.3269 114.678C71.4415 114.802 71.5562 114.926 71.6752 115.045C71.7458 115.112 71.8163 115.178 71.8869 115.245C71.9574 115.32 72.0235 115.391 72.0941 115.466C73.1567 116.6 73.8798 117.211 74.2634 117.3C74.6425 117.388 75.2201 117.069 76.0049 116.343C76.0843 116.277 76.1637 116.215 76.243 116.148C76.3929 116.011 76.5428 115.869 76.6972 115.732C77.6628 114.846 78.2668 113.973 78.5137 113.105C78.7562 112.237 78.6283 111.506 78.1213 110.917H78.1081ZM72.7643 106.236C72.654 106.112 72.5482 105.988 72.438 105.864C71.9839 105.346 71.3225 105.182 70.4539 105.39C69.5853 105.598 68.6947 106.121 67.7864 106.958C67.6145 107.117 67.4425 107.277 67.2706 107.436C67.1339 107.582 66.9531 107.764 66.7238 107.976C66.4902 108.193 66.3447 108.433 66.2829 108.694C66.2212 108.955 66.2653 109.172 66.4108 109.345C66.5563 109.518 66.6489 109.624 66.6842 109.659C66.7018 109.686 66.715 109.708 66.7327 109.735C66.7723 109.779 66.812 109.819 66.8517 109.859C66.8693 109.885 66.8826 109.907 66.9002 109.934C66.9399 109.978 66.984 110.023 67.0236 110.067C67.103 110.156 67.178 110.249 67.2573 110.337C67.7379 110.851 68.2229 111.365 68.7035 111.878C69.0166 112.215 69.2855 112.37 69.506 112.343C69.722 112.321 70.0747 112.082 70.5553 111.63C70.6832 111.511 70.811 111.391 70.9389 111.272C71.9574 110.324 72.6496 109.403 73.0024 108.486C73.3551 107.573 73.2801 106.82 72.7643 106.231V106.236Z" fill="white"/>
<path d="M109.235 92.1642C109.367 92.3945 109.27 92.6603 108.944 92.957C108.617 93.2538 107.96 93.6967 106.977 94.2946C106.739 94.4496 106.496 94.6046 106.258 94.7597C106.135 94.8349 106.016 94.9102 105.892 94.9855C105.773 95.0564 105.654 95.1228 105.535 95.1937C104.354 95.9289 103.701 96.1947 103.564 95.9777C103.564 95.9732 103.564 95.7828 103.591 95.4196C103.613 95.052 103.529 94.7198 103.344 94.4186C103.159 94.1219 102.771 93.7587 102.189 93.3379C101.602 92.9172 101.122 92.7134 100.738 92.7267C100.359 92.74 99.4023 93.236 97.89 94.2415C96.3776 95.2513 95.5399 95.9777 95.3636 96.3851C95.271 96.6066 95.2621 97.0096 95.3459 97.581C95.4253 98.1568 95.6061 98.6395 95.8838 99.0382C96.1572 99.4368 96.457 99.676 96.7877 99.7645C96.8141 99.7734 96.9596 99.7911 97.2198 99.8265C97.4799 99.862 97.6342 99.9196 97.6871 99.9948C97.793 100.15 97.2815 100.61 96.166 101.403C95.0505 102.192 94.2569 102.714 93.7719 102.945C93.2869 103.179 92.9738 103.193 92.8239 102.989C92.749 102.883 92.8107 102.617 93.0179 102.192C93.2207 101.766 93.3398 101.501 93.3662 101.403C93.5294 100.841 93.5823 100.221 93.525 99.5431C93.4677 98.8654 93.2869 97.4525 93.0223 95.2867C92.7578 93.1209 92.5373 91.4733 92.3301 90.3438C92.1317 89.2233 92.0347 88.3995 92.0435 87.8724C92.0435 86.8626 92.4095 86.1141 93.137 85.6357C93.8601 85.1574 94.7904 85.1308 95.9059 85.5693C96.7215 85.8838 98.2735 86.7474 100.531 88.1913C102.784 89.6396 104.698 90.7868 106.298 91.615C106.871 91.9162 107.396 92.0623 107.863 92.0623C108.745 92.0579 109.204 92.0933 109.243 92.1598L109.235 92.1642ZM98.9173 92.3059C99.4287 91.9738 99.6492 91.7479 99.5742 91.6327C99.3714 91.3227 97.8238 90.2907 94.8609 88.6254C94.4024 88.3685 94.1643 88.2445 94.1422 88.2622C94.1202 88.2755 94.2084 89.303 94.4376 91.336C94.6713 93.3645 94.8609 94.4585 94.9756 94.6312C94.9888 94.6489 94.9976 94.6666 95.0108 94.6844C95.0681 94.7685 95.2136 94.7287 95.4517 94.5648C95.5135 94.5293 95.5796 94.4939 95.6413 94.4629C96.3556 93.9846 97.0699 93.5151 97.7885 93.0456C98.1633 92.7976 98.5381 92.5495 98.9129 92.3059H98.9173Z" fill="white"/>
<path d="M124.504 74.3961C124.609 74.6397 124.72 74.8833 124.825 75.1269C124.861 75.2155 124.892 75.3041 124.927 75.3883C125.121 75.8312 125.319 76.2696 125.513 76.7126C126.316 78.5241 126.796 79.8439 126.968 80.6677C127.343 82.4837 126.858 84.0914 125.544 85.5265C124.9 86.2262 124.111 86.802 123.176 87.2582C123.075 87.3069 122.978 87.3557 122.877 87.4044C122.123 87.772 121.369 87.9713 120.615 87.9935C119.856 88.0156 119.371 87.8207 119.155 87.3955C119.12 87.3291 119.085 87.2627 119.054 87.1918C118.948 86.9792 118.944 86.74 119.041 86.4699C119.142 86.1997 119.341 85.9915 119.645 85.8365C119.945 85.6859 120.368 85.6195 120.91 85.646C121.453 85.6682 121.827 85.6328 122.035 85.5309C122.612 85.2474 123 84.8045 123.203 84.1933C123.406 83.5821 123.468 82.7538 123.393 81.7041C123.318 80.6589 122.806 79.0998 121.854 77.0359C120.901 74.9719 120.24 73.7716 119.879 73.435C119.517 73.0984 119.072 72.908 118.547 72.8637C117.687 72.7928 117.229 72.7087 117.176 72.5979C117.026 72.2835 117.956 71.6235 120.002 70.6801C120.249 70.565 120.496 70.4543 120.743 70.3391C120.866 70.2859 120.994 70.2328 121.117 70.1796C123.269 69.2052 124.407 68.8642 124.504 69.0945C124.557 69.2141 124.411 69.5241 124.076 70.0291C123.741 70.534 123.56 70.9104 123.534 71.1585C123.485 71.6944 123.692 72.4783 124.146 73.5103C124.182 73.6033 124.217 73.6919 124.252 73.7849C124.323 73.9665 124.407 74.1703 124.504 74.3961Z" fill="white"/>
<path d="M158.986 71.787C159.047 72.0438 158.889 72.2697 158.501 72.4602C158.113 72.6506 157.376 72.8854 156.296 73.1733C156.032 73.253 155.763 73.3327 155.498 73.4124C155.366 73.4479 155.229 73.4877 155.097 73.5232C154.965 73.5542 154.837 73.5896 154.704 73.6206C153.404 73.9838 152.716 74.0502 152.645 73.7978C152.645 73.7889 152.703 73.6162 152.817 73.2707C152.936 72.9252 152.945 72.5842 152.848 72.2431C152.751 71.9021 152.487 71.4459 152.05 70.8746C151.614 70.3032 151.213 69.971 150.851 69.8692C150.494 69.7717 149.462 69.9666 147.778 70.4892C146.094 71.0119 145.119 71.4592 144.846 71.8002C144.7 71.9863 144.586 72.3627 144.511 72.9341C144.436 73.5054 144.475 74.0192 144.63 74.4798C144.784 74.936 145 75.2549 145.282 75.4365C145.309 75.4498 145.437 75.5118 145.67 75.6225C145.904 75.7333 146.036 75.8307 146.063 75.9193C146.12 76.1009 145.52 76.3888 144.268 76.814C143.016 77.2392 142.134 77.5049 141.623 77.5802C141.107 77.6599 140.811 77.5802 140.723 77.3455C140.679 77.2215 140.807 76.9911 141.111 76.6412C141.416 76.2958 141.592 76.0787 141.645 75.9902C141.945 75.503 142.161 74.9272 142.284 74.2672C142.408 73.6073 142.61 72.2077 142.932 70.064C143.254 67.9248 143.483 66.286 143.589 65.1522C143.699 64.0272 143.827 63.2122 143.973 62.7117C144.242 61.7506 144.784 61.1438 145.587 60.8958C146.393 60.6478 147.271 60.8958 148.201 61.6355C148.88 62.1714 150.11 63.447 151.843 65.4755C153.576 67.5084 155.066 69.1561 156.349 70.4051C156.808 70.8568 157.257 71.1492 157.703 71.282C158.532 71.5301 158.955 71.6984 158.972 71.7737L158.986 71.787ZM149.264 68.9479C149.832 68.7796 150.097 68.629 150.062 68.4961C149.952 68.1374 148.774 66.7068 146.437 64.2575C146.076 63.8766 145.882 63.6906 145.86 63.6994C145.838 63.7083 145.644 64.7137 145.326 66.7156C145.009 68.7176 144.899 69.8204 144.96 70.0153C144.969 70.0375 144.974 70.0552 144.982 70.0773C145.013 70.1748 145.159 70.1792 145.423 70.095C145.49 70.0818 145.56 70.0685 145.626 70.0507C146.42 69.8027 147.218 69.5591 148.016 69.3244C148.435 69.1959 148.849 69.0719 149.268 68.9435L149.264 68.9479Z" fill="white"/>
<path d="M206.316 66.0766C206.316 66.3423 206.105 66.5195 205.686 66.6081C205.267 66.6966 204.5 66.7409 203.389 66.7542C203.111 66.7631 202.838 66.7764 202.56 66.7852C202.423 66.7852 202.282 66.7852 202.145 66.7897C202.013 66.7897 201.881 66.7897 201.744 66.7897C200.404 66.8162 199.729 66.7099 199.72 66.4486C199.72 66.4398 199.817 66.2847 200.016 65.9791C200.214 65.6735 200.307 65.3458 200.298 64.9914C200.289 64.6371 200.144 64.1322 199.866 63.4678C199.584 62.8035 199.284 62.3827 198.958 62.1967C198.636 62.0151 197.6 61.9487 195.854 62.0328C194.108 62.117 193.063 62.3074 192.719 62.5687C192.529 62.7105 192.331 63.0515 192.124 63.583C191.912 64.1189 191.824 64.6283 191.859 65.1066C191.894 65.5894 192.027 65.9526 192.251 66.1962C192.274 66.2183 192.379 66.3069 192.578 66.4708C192.776 66.6346 192.878 66.7631 192.882 66.8561C192.895 67.0465 192.247 67.175 190.942 67.2769C189.637 67.3743 188.729 67.4097 188.217 67.3566C187.706 67.3034 187.437 67.1573 187.415 66.9048C187.402 66.7764 187.582 66.5815 187.961 66.3202C188.336 66.0633 188.561 65.895 188.632 65.8241C189.037 65.4255 189.386 64.925 189.663 64.3138C189.946 63.707 190.479 62.4004 191.312 60.4073C192.141 58.4142 192.767 56.8862 193.147 55.8144C193.526 54.7514 193.852 53.9984 194.112 53.5467C194.606 52.683 195.276 52.2268 196.109 52.1914C196.947 52.1559 197.728 52.6121 198.442 53.56C198.962 54.2509 199.835 55.7878 201.004 58.1884C202.168 60.5889 203.204 62.5554 204.13 64.0879C204.46 64.6415 204.822 65.0357 205.214 65.2749C205.951 65.7222 206.316 65.988 206.316 66.0677V66.0766ZM197.661 60.9078C198.252 60.8857 198.543 60.806 198.539 60.6687C198.521 60.2966 197.741 58.618 196.096 55.6593C195.845 55.2032 195.704 54.9728 195.677 54.9773C195.655 54.9773 195.223 55.9029 194.425 57.7632C193.627 59.6234 193.252 60.6598 193.266 60.868C193.266 60.8901 193.266 60.9123 193.266 60.9344C193.27 61.0363 193.411 61.0761 193.684 61.0584C193.755 61.0584 193.821 61.0628 193.892 61.0673C194.716 61.0274 195.541 60.992 196.365 60.961C196.797 60.9433 197.229 60.9211 197.661 60.9078Z" fill="white"/>
<path d="M234.582 68.9907C233.863 68.88 233.003 68.2377 231.963 67.0729C231.619 66.7008 230.239 64.7698 227.594 61.3594C224.935 57.9534 223.405 56.2792 223.224 56.257C223.035 56.2393 222.814 57.6522 222.567 60.4957C222.32 63.3392 222.417 65.1861 222.849 66.0365C222.889 66.1206 223.03 66.3111 223.273 66.6078C223.515 66.9046 223.63 67.0906 223.625 67.1615C223.59 67.5379 222.479 67.6088 220.288 67.4316C220.063 67.4139 219.842 67.3962 219.617 67.3785C218.48 67.2943 217.92 67.095 217.942 66.7629C218.03 66.6831 218.114 66.599 218.202 66.5192C218.52 66.4041 218.841 66.2889 219.159 66.1738C219.595 65.9656 219.9 65.6423 220.067 65.1949C220.235 64.7476 220.438 63.0513 220.662 60.1059C220.892 57.1606 220.931 55.4598 220.777 54.9992C220.623 54.543 220.288 54.1266 219.759 53.7546C219.234 53.3826 218.974 53.1124 218.987 52.9485C219.005 52.6916 219.657 52.5986 220.936 52.6961C222.219 52.7935 223.123 52.9485 223.652 53.1434C224.176 53.3383 224.692 53.6483 225.191 54.0691C225.684 54.4943 227.294 56.3235 229.825 59.6364C232.342 62.9538 233.594 64.659 233.784 64.6812C233.965 64.7077 234.22 63.6226 234.551 61.4214C234.877 59.2201 235.01 57.7231 234.935 56.9258C234.864 56.1286 234.719 55.5838 234.503 55.2871C234.313 55.1055 234.119 54.9283 233.929 54.7467C233.775 54.6006 233.704 54.4588 233.727 54.326C233.753 54.1488 234.198 54.1178 235.076 54.2462C235.305 54.2817 235.534 54.3127 235.759 54.3481C237.708 54.6404 238.868 54.9505 239.233 55.2295C239.282 55.3048 239.335 55.3756 239.383 55.4509C239.353 55.637 239.053 55.9027 238.488 56.2615C237.924 56.6158 237.536 57.0321 237.329 57.506C237.117 57.98 236.813 59.4859 236.412 62.0281C236.319 62.5464 236.226 63.0646 236.134 63.5828C236.103 63.7511 236.068 63.9238 236.037 64.0921C235.984 64.4331 235.927 64.7742 235.874 65.1152C235.816 65.4563 235.755 65.7973 235.697 66.1383C235.468 67.5822 235.309 68.3928 235.226 68.5611C235.067 68.88 234.855 69.0173 234.582 68.973V68.9907Z" fill="white"/>
<path d="M252.875 58.0063C252.928 57.7804 253.148 57.6963 253.541 57.7539C253.611 57.7672 254.912 58.0639 257.43 58.7238C258.201 58.9187 258.968 59.118 259.735 59.3218C260.661 59.5787 261.098 59.8045 261.045 59.9906C260.992 60.1766 260.622 60.3272 259.938 60.4512C259.255 60.5708 258.757 60.8631 258.448 61.3237C258.139 61.7844 257.597 63.4408 256.83 66.2976C256.063 69.1499 255.688 70.8463 255.706 71.3866C255.723 71.927 255.895 72.3389 256.217 72.6179C256.892 73.2114 257.213 73.5613 257.183 73.6632C257.125 73.8713 256.927 73.9555 256.592 73.9112C256.495 73.9023 255.401 73.5923 253.303 73.0431C252.998 72.9634 252.69 72.8837 252.386 72.8039C251.874 72.6799 251.363 72.5603 250.851 72.4407C249.961 72.2193 249.537 72.0156 249.586 71.8118C249.595 71.7675 249.608 71.7188 249.617 71.6745C249.643 71.5682 249.969 71.4486 250.609 71.3113C251.244 71.1785 251.707 70.8773 252.002 70.4078C252.293 69.9383 252.8 68.2641 253.523 65.3852C253.624 64.9866 253.721 64.588 253.823 64.1893C253.858 64.0255 253.893 63.866 253.929 63.7021C253.968 63.5427 254.008 63.3833 254.048 63.2194C254.154 62.7366 254.259 62.2538 254.365 61.7711C254.572 60.9384 254.603 60.2563 254.449 59.7292C254.37 59.4546 254.079 59.1313 253.58 58.7593C253.078 58.3828 252.844 58.1348 252.875 57.9975V58.0063Z" fill="white"/>
<path d="M290.56 74.266C290.388 74.1863 288.814 75.1828 285.948 77.3398C283.086 79.5056 281.592 80.7015 281.367 80.8432C280.675 81.2905 280.093 81.4101 279.608 81.2064C279.22 81.0425 278.88 78.9697 278.43 74.9702C277.972 70.9663 277.527 68.9024 277.244 68.7916C277.081 68.7296 276.482 70.0628 275.45 72.7911C274.414 75.5194 273.938 77.2955 274.017 78.1237C274.043 78.2655 274.074 78.4072 274.101 78.5489C274.162 78.8678 274.176 79.076 274.14 79.1779C274.035 79.4569 273.206 79.2842 271.649 78.7039C270.093 78.1237 269.37 77.6808 269.484 77.3486C269.506 77.2866 269.811 77.1848 270.397 77.0386C270.984 76.8969 271.482 76.5603 271.887 76.0288C272.293 75.4973 273.294 73.079 274.886 68.7651C275.344 67.5205 275.401 66.5372 275.049 65.8197C274.934 65.6514 274.819 65.4831 274.705 65.3148C274.489 65.0003 274.409 64.7612 274.467 64.6061C274.559 64.3493 275.485 64.5308 277.236 65.1864C278.245 65.5673 278.942 65.926 279.321 66.2449C279.705 66.5682 280.013 67.0023 280.251 67.5515C280.489 68.1007 280.847 69.9786 281.235 73.172C281.614 76.3654 281.817 77.982 281.94 78.0351C282.059 78.0883 283.386 77.1316 286.001 75.2315C288.62 73.3359 290.291 72.2995 290.935 72.0514C291.583 71.8078 292.235 71.768 292.897 71.9319C293.241 72.016 293.765 72.2242 294.471 72.5696C296.071 73.3492 296.803 73.8807 296.68 74.1331C296.587 74.3191 296.274 74.4697 295.74 74.5805C295.207 74.6912 294.762 74.9436 294.405 75.3245C294.047 75.7054 293.523 76.6001 292.839 78.0041C292.742 78.2123 292.65 78.4161 292.553 78.6242C292.363 79.0361 291.953 79.8865 291.327 81.1709C290.701 82.4554 290.344 83.3722 290.251 83.917C290.159 84.4618 290.176 84.9135 290.291 85.2723C290.37 85.445 290.45 85.6178 290.529 85.7905C290.802 86.3131 290.935 86.5833 290.93 86.5966C290.864 86.6542 290.798 86.7073 290.732 86.7649C290.313 86.818 289.449 86.5169 288.135 85.8746C286.816 85.2324 285.957 84.7452 285.56 84.382C285.335 84.1783 285.26 83.9879 285.344 83.8063C285.436 83.7443 285.533 83.6778 285.626 83.6158C285.749 83.5494 285.869 83.4829 285.992 83.4165C286.27 83.2349 286.574 82.9249 286.905 82.4775C287.235 82.0346 287.853 80.8476 288.752 78.921C289.228 77.9289 289.7 76.9367 290.176 75.949C290.652 74.9304 290.78 74.3679 290.555 74.266H290.56Z" fill="white"/>
<path d="M318.224 103.244C318.065 103.461 317.783 103.47 317.377 103.284C316.972 103.098 316.297 102.66 315.349 101.982C315.111 101.818 314.873 101.659 314.631 101.499C314.512 101.415 314.397 101.331 314.278 101.251C314.168 101.167 314.053 101.083 313.943 101.003C312.796 100.201 312.289 99.701 312.435 99.4839C312.435 99.4795 312.611 99.4131 312.96 99.2846C313.303 99.1606 313.577 98.9524 313.775 98.6601C313.974 98.3678 314.15 97.8673 314.304 97.1631C314.459 96.4544 314.45 95.9274 314.282 95.5775C314.119 95.232 313.286 94.5411 311.765 93.5445C310.244 92.548 309.26 92.0652 308.815 92.0696C308.577 92.0696 308.207 92.2247 307.722 92.5303C307.232 92.8359 306.857 93.1946 306.606 93.6021C306.35 94.014 306.249 94.3861 306.297 94.7227C306.302 94.7537 306.342 94.891 306.412 95.1434C306.483 95.3959 306.491 95.5598 306.443 95.6395C306.342 95.7989 305.72 95.511 304.569 94.8024C303.418 94.0937 302.638 93.5711 302.241 93.2212C301.844 92.8713 301.708 92.5878 301.835 92.3708C301.902 92.2601 302.166 92.2114 302.634 92.2291C303.096 92.2468 303.383 92.2512 303.484 92.2335C304.058 92.1582 304.644 91.9589 305.235 91.6356C305.826 91.3123 307.038 90.5815 308.903 89.4742C310.768 88.3669 312.184 87.5077 313.127 86.8699C314.066 86.2409 314.785 85.829 315.266 85.6253C316.187 85.2267 317.016 85.2665 317.739 85.7449C318.462 86.2232 318.854 87.0736 318.903 88.2783C318.938 89.1553 318.771 90.9358 318.352 93.5932C317.929 96.2507 317.651 98.4785 317.536 100.29C317.492 100.941 317.567 101.486 317.761 101.92C318.123 102.739 318.277 103.182 318.228 103.244H318.224ZM313.947 93.7305C314.454 94.0716 314.75 94.1867 314.825 94.076C315.027 93.766 315.354 91.9279 315.702 88.5308C315.755 88.0037 315.773 87.7336 315.751 87.7203C315.728 87.707 314.825 88.1942 313.065 89.2129C311.306 90.2316 310.385 90.8472 310.274 91.0199C310.261 91.0377 310.252 91.0554 310.239 91.0731C310.186 91.1572 310.279 91.2768 310.517 91.4318C310.574 91.4761 310.627 91.5204 310.684 91.5647C311.399 92.0342 312.113 92.5081 312.823 92.9865C313.198 93.2345 313.572 93.4825 313.943 93.735L313.947 93.7305Z" fill="white"/>
<path d="M329.656 113.498C328.399 112.399 327.87 111.735 328.086 111.478C328.179 111.368 328.479 111.35 328.994 111.43C329.506 111.509 329.942 111.469 330.299 111.314C330.657 111.159 331.234 110.61 332.037 109.676C332.187 109.516 332.336 109.357 332.491 109.197C332.791 108.878 333.011 108.639 333.148 108.48C333.293 108.325 333.439 108.17 333.584 108.019C334.153 107.355 334.722 106.69 335.291 106.03C336.574 104.533 337.279 103.594 337.411 103.214C337.539 102.833 337.429 102.314 337.076 101.668C336.723 101.021 336.622 100.605 336.781 100.414C336.913 100.255 337.433 100.556 338.337 101.331C338.456 101.433 338.575 101.539 338.694 101.641C338.818 101.752 338.937 101.863 339.06 101.969C339.536 102.385 340.008 102.806 340.48 103.231C341.772 104.378 342.579 105.149 342.918 105.521C343.258 105.893 343.333 106.177 343.161 106.367C343.099 106.438 342.764 106.389 342.164 106.234C341.56 106.079 341.066 106.084 340.674 106.243C339.995 106.531 339.201 107.182 338.302 108.201C338.152 108.356 337.998 108.511 337.848 108.661C337.275 109.308 336.701 109.95 336.124 110.597C334.537 112.382 333.69 113.502 333.58 113.963C333.474 114.424 333.527 114.831 333.743 115.19C333.959 115.549 334.321 115.956 334.823 116.426C336.009 117.528 337.125 118.308 338.183 118.76C338.659 118.963 339.369 119.11 340.312 119.211C341.256 119.313 341.82 119.459 342.006 119.646C342.191 119.832 342.169 120.04 341.939 120.27C341.331 120.881 340.586 121.364 339.713 121.718C339.417 121.838 339.157 121.847 338.928 121.745C338.483 121.541 337.147 120.31 334.854 118.157C334.281 117.63 333.703 117.103 333.126 116.581C332.429 115.952 331.732 115.332 331.031 114.716C330.577 114.313 330.119 113.91 329.665 113.511L329.656 113.498Z" fill="white"/>
<path d="M106.789 132.579C106.709 132.481 106.634 132.379 106.555 132.282C106.176 131.803 106.119 131.454 106.383 131.245C106.507 131.144 107.005 131.179 107.865 131.356C109.897 131.321 111.392 131.073 112.384 130.559C113.151 129.988 113.645 129.363 113.865 128.668C114.086 127.972 114.015 127.366 113.654 126.847C113.177 126.17 112.428 125.855 111.392 125.917C110.876 125.953 109.844 126.174 108.292 126.617C106.74 127.064 105.576 127.299 104.805 127.29C103.61 127.272 102.701 126.892 102.093 126.117C101.335 125.155 101.136 124.035 101.515 122.75C101.665 122.241 101.948 121.687 102.362 121.089C102.776 120.492 103.275 119.973 103.848 119.548C104.425 119.119 105.034 118.742 105.682 118.414C106.33 118.087 106.802 117.821 107.097 117.608C107.296 117.458 107.499 117.307 107.697 117.156C108.111 116.864 108.499 116.838 108.861 117.081C109.223 117.325 109.681 117.856 110.25 118.68C110.532 119.096 110.576 119.375 110.378 119.513C110.175 119.654 109.721 119.641 108.998 119.482C108.275 119.322 107.578 119.287 106.908 119.375C106.238 119.464 105.532 119.778 104.809 120.314C104.082 120.855 103.614 121.462 103.403 122.13C103.191 122.795 103.292 123.393 103.689 123.915C104.09 124.442 104.778 124.633 105.757 124.513C106.255 124.451 107.309 124.172 108.914 123.712C110.506 123.264 111.674 123.074 112.428 123.114C113.742 123.189 114.729 123.734 115.404 124.726C116.074 125.718 116.211 126.847 115.832 128.114C115.453 129.372 114.659 130.435 113.438 131.338C113.424 131.347 113.416 131.356 113.407 131.361C112.851 131.768 112.181 132.176 111.379 132.583C110.581 132.995 110.131 133.243 110.034 133.318C109.946 133.398 109.853 133.478 109.765 133.557C109.681 133.637 109.597 133.717 109.514 133.797C109.117 134.107 108.707 134.155 108.27 133.934C107.834 133.717 107.344 133.261 106.798 132.574L106.789 132.579Z" fill="white"/>
<path d="M139.884 114.54C139.994 114.784 139.91 115.019 139.628 115.249C139.346 115.479 138.786 115.789 137.944 116.197C137.736 116.303 137.534 116.41 137.326 116.52C137.221 116.569 137.119 116.622 137.013 116.671C136.912 116.715 136.811 116.764 136.709 116.808C135.699 117.309 135.14 117.45 135.02 117.216C135.02 117.211 135.025 117.034 135.047 116.689C135.069 116.343 134.998 116.011 134.844 115.696C134.685 115.382 134.359 114.97 133.865 114.47C133.367 113.969 132.957 113.694 132.631 113.641C132.304 113.588 131.484 113.898 130.175 114.594C128.865 115.289 128.142 115.829 127.988 116.184C127.904 116.379 127.895 116.755 127.966 117.309C128.032 117.867 128.186 118.354 128.42 118.775C128.654 119.195 128.914 119.479 129.192 119.616C129.218 119.625 129.342 119.674 129.562 119.749C129.782 119.829 129.919 119.909 129.963 119.988C130.056 120.152 129.615 120.502 128.654 121.047C127.693 121.596 127.005 121.941 126.586 122.074C126.167 122.207 125.894 122.167 125.766 121.95C125.7 121.84 125.757 121.6 125.933 121.237C126.11 120.874 126.211 120.648 126.238 120.56C126.379 120.059 126.427 119.488 126.383 118.841C126.335 118.194 126.185 116.835 125.969 114.744C125.753 112.654 125.576 111.055 125.413 109.956C125.25 108.862 125.179 108.065 125.188 107.569C125.201 106.612 125.523 105.966 126.158 105.629C126.793 105.297 127.591 105.43 128.552 106.028C129.249 106.466 130.581 107.542 132.498 109.296C134.416 111.05 136.035 112.463 137.388 113.522C137.873 113.907 138.314 114.133 138.715 114.208C139.465 114.35 139.853 114.461 139.888 114.532L139.884 114.54ZM131.079 112.937C131.524 112.707 131.714 112.534 131.652 112.41C131.48 112.078 130.166 110.838 127.626 108.756C127.234 108.433 127.027 108.278 127.009 108.287C126.992 108.295 127.053 109.288 127.234 111.25C127.415 113.212 127.574 114.275 127.675 114.461C127.684 114.478 127.697 114.501 127.706 114.518C127.754 114.607 127.882 114.594 128.085 114.483C128.138 114.461 128.195 114.439 128.248 114.416C128.865 114.089 129.487 113.765 130.109 113.442C130.431 113.269 130.757 113.101 131.083 112.933L131.079 112.937Z" fill="white"/>
<path d="M162.262 106.907C161.688 107.076 160.793 106.81 159.554 106.132C159.149 105.92 157.359 104.671 154.003 102.531C150.635 100.401 148.787 99.4399 148.646 99.4886C148.496 99.5417 148.902 100.915 149.872 103.599C150.842 106.283 151.667 107.93 152.332 108.551C152.399 108.613 152.579 108.732 152.879 108.918C153.183 109.1 153.342 109.228 153.364 109.295C153.488 109.649 152.69 110.123 150.974 110.761C150.798 110.827 150.626 110.889 150.454 110.956C149.568 111.292 149.065 111.31 148.946 111C148.977 110.894 149.012 110.792 149.043 110.685C149.237 110.464 149.427 110.242 149.621 110.025C149.863 109.68 149.96 109.272 149.903 108.803C149.85 108.333 149.308 106.717 148.276 103.944C147.244 101.176 146.583 99.6082 146.279 99.2494C145.974 98.8907 145.551 98.6338 144.996 98.4876C144.44 98.3415 144.136 98.1909 144.074 98.0358C143.982 97.7922 144.44 97.4733 145.459 97.0924C146.477 96.7115 147.227 96.5167 147.707 96.4989C148.188 96.4812 148.704 96.5742 149.25 96.7735C149.793 96.9773 151.764 98.0536 154.991 100.135C158.21 102.23 159.81 103.32 159.964 103.271C160.114 103.227 159.872 102.142 159.25 100.007C158.624 97.872 158.13 96.4547 157.76 95.7504C157.39 95.0462 157.063 94.6033 156.786 94.4173C156.569 94.3243 156.353 94.2313 156.137 94.1382C155.961 94.0629 155.855 93.9611 155.816 93.8282C155.763 93.6555 156.089 93.4606 156.803 93.248C156.988 93.1948 157.174 93.1373 157.359 93.0841C158.946 92.6191 159.938 92.4596 160.326 92.5792C160.392 92.6279 160.458 92.6766 160.524 92.7254C160.573 92.907 160.454 93.2657 160.167 93.8061C159.881 94.3464 159.757 94.8735 159.788 95.3828C159.819 95.8922 160.185 97.3892 160.882 99.8651C161.018 100.374 161.151 100.884 161.287 101.389C161.331 101.557 161.375 101.725 161.415 101.894C161.508 102.226 161.605 102.562 161.697 102.895C161.785 103.227 161.878 103.563 161.966 103.896C162.363 105.304 162.566 106.101 162.57 106.287C162.579 106.637 162.473 106.845 162.253 106.907H162.262Z" fill="white"/>
<path d="M182.226 102.965C180.899 103.165 179.77 103.178 178.831 102.987C176.855 102.589 175.29 101.606 174.135 99.9889C173.531 99.1474 173.125 98.2262 172.923 97.2208C172.896 97.0923 172.87 96.9594 172.843 96.8266C172.64 95.83 172.645 94.8246 172.865 93.8103C173.086 92.7961 173.491 91.897 174.087 91.113C174.682 90.3291 175.431 89.6514 176.335 89.0845C177.239 88.5176 178.244 88.15 179.338 87.9817C179.483 87.9595 179.624 87.9374 179.77 87.9152C180.211 87.8488 180.956 87.8089 182.001 87.8045C183.046 87.8045 183.866 87.7691 184.457 87.6938C185.052 87.6185 185.488 87.8089 185.766 88.2518C186.044 88.6948 186.238 89.4034 186.348 90.3778C186.405 90.8739 186.269 91.1396 185.947 91.175C185.815 91.1928 185.471 90.9757 184.906 90.5372C183.465 89.4078 181.816 88.9694 180.008 89.244C179.228 89.3635 178.513 89.6426 177.883 90.0855C176.031 91.3876 175.387 93.4649 175.894 96.2685C175.899 96.2951 175.903 96.3216 175.907 96.3438C176.066 97.2075 176.344 97.9914 176.741 98.6868C177.561 100.131 178.694 101.012 180.153 101.358C180.78 101.513 181.441 101.535 182.142 101.433C182.843 101.327 183.5 101.118 184.117 100.808C184.734 100.494 185.33 100.086 185.916 99.577C186.502 99.0677 186.943 98.8019 187.226 98.7665C187.393 98.7488 187.49 98.8772 187.521 99.1563C187.552 99.4353 187.398 99.8428 187.062 100.379C186.727 100.915 186.361 101.309 185.956 101.561C184.787 102.296 183.553 102.757 182.221 102.961L182.226 102.965Z" fill="white"/>
<path d="M207.096 87.5352C206.677 87.5307 206.386 87.7433 206.21 88.1729C206.033 88.6026 205.945 89.4928 205.941 90.8481C205.932 91.0873 205.923 91.3309 205.914 91.5745C205.914 91.8225 205.914 92.0706 205.914 92.3186C205.91 92.5622 205.906 92.8102 205.901 93.0538C205.901 93.417 205.901 93.7802 205.901 94.1478C205.892 96.4775 205.967 97.9391 206.113 98.537C206.258 99.135 206.474 99.5424 206.756 99.7639C207.387 100.26 207.7 100.543 207.7 100.61C207.696 100.889 207.299 101.026 206.51 101.017C206.386 101.017 206.258 101.017 206.135 101.017C206.007 101.017 205.879 101.008 205.747 101.004C204.852 101.004 203.961 101.013 203.066 101.031C201.92 101.048 201.342 100.942 201.338 100.698C201.333 100.504 201.541 100.269 201.964 100.003C202.387 99.7329 202.66 99.4627 202.779 99.1881C203.009 98.6566 203.11 97.6335 203.093 96.1099C203.097 95.8619 203.101 95.6138 203.106 95.3614C203.093 94.5066 203.084 93.6517 203.07 92.7969C203.035 90.3299 202.956 88.9082 202.832 88.5184C202.638 87.9205 202.211 87.6326 201.549 87.6459C200.328 87.6725 199.287 88.1774 198.445 89.1518C197.987 89.6744 197.718 89.9402 197.638 89.9446C197.414 89.9534 197.29 89.7143 197.264 89.2271C197.189 87.637 197.352 86.7069 197.771 86.4412C197.978 86.3083 198.952 86.202 200.698 86.1533C201.117 86.14 201.536 86.1311 201.955 86.1223C202.096 86.1223 202.237 86.1223 202.378 86.1223C203.22 86.109 204.063 86.1001 204.905 86.0957C208.873 86.0957 210.989 86.2463 211.258 86.357C211.655 86.5298 211.827 87.2871 211.774 88.6247C211.77 88.7399 211.765 88.855 211.761 88.9702C211.739 89.546 211.598 89.8294 211.338 89.8206C211.161 89.8117 210.883 89.5681 210.495 89.0853C210.107 88.5981 209.68 88.2217 209.217 87.9515C208.754 87.6813 208.048 87.5396 207.109 87.5263L207.096 87.5352Z" fill="white"/>
<path d="M239.177 89.9993C239.119 90.2828 238.824 90.4954 238.299 90.6371C237.77 90.7833 237.422 91.0224 237.25 91.3546C237.078 91.6868 236.765 93.0421 236.311 95.4294C235.857 97.8167 235.517 99.3226 235.297 99.9471C235.076 100.572 234.737 101.116 234.287 101.586C233.617 102.281 232.801 102.737 231.84 102.959C230.879 103.18 229.918 103.216 228.943 103.07C228.771 103.043 228.595 103.016 228.423 102.99C227.211 102.808 226.219 102.463 225.443 101.936C224.667 101.409 224.102 100.797 223.758 100.084C223.414 99.3713 223.242 98.6405 223.247 97.8831C223.247 97.1257 223.383 95.5623 223.648 93.1883C223.913 90.8187 224.023 89.4855 223.983 89.1888C223.943 88.8965 223.758 88.6396 223.419 88.4314C222.762 88.0284 222.44 87.7183 222.462 87.4969C222.493 87.1603 223.555 87.0894 225.641 87.3374C226.135 87.395 226.629 87.457 227.118 87.519C228.145 87.6519 228.639 87.8556 228.604 88.1214C228.591 88.2144 228.414 88.3827 228.075 88.6352C227.735 88.8832 227.488 89.2154 227.334 89.6317C227.008 90.4821 226.686 92.1784 226.36 94.7163C226.033 97.2542 226.025 98.8796 226.333 99.5883C226.862 100.806 227.881 101.519 229.406 101.759C230.09 101.865 230.725 101.829 231.307 101.652C231.889 101.475 232.365 101.196 232.74 100.815C233.414 100.138 233.965 98.6493 234.38 96.3506C235.032 92.7321 235.129 90.5131 234.657 89.6893C234.362 89.1622 234.212 88.892 234.212 88.8787C234.243 88.6883 234.719 88.6662 235.627 88.83C235.954 88.8876 236.276 88.9496 236.602 89.0072C238.383 89.3394 239.234 89.6848 239.172 90.0037L239.177 89.9993Z" fill="white"/>
<path d="M260.216 110.09C260.124 110.338 259.899 110.444 259.542 110.409C259.185 110.369 258.572 110.192 257.699 109.882C257.478 109.811 257.262 109.74 257.042 109.674C256.932 109.634 256.826 109.598 256.715 109.558C256.614 109.519 256.508 109.479 256.407 109.439C255.353 109.076 254.868 108.779 254.947 108.531C254.947 108.522 255.08 108.407 255.335 108.177C255.591 107.946 255.776 107.667 255.891 107.331C256.001 106.998 256.067 106.476 256.072 105.772C256.076 105.067 255.984 104.58 255.794 104.31C255.604 104.044 254.815 103.677 253.426 103.238C252.037 102.804 251.16 102.671 250.807 102.813C250.613 102.893 250.344 103.15 250.005 103.592C249.661 104.031 249.427 104.487 249.291 104.952C249.154 105.417 249.141 105.798 249.233 106.095C249.242 106.121 249.295 106.241 249.396 106.454C249.493 106.666 249.529 106.817 249.502 106.91C249.449 107.091 248.903 107.025 247.862 106.728C246.821 106.431 246.107 106.192 245.732 105.989C245.353 105.785 245.195 105.563 245.261 105.32C245.296 105.196 245.499 105.067 245.874 104.934C246.248 104.802 246.473 104.717 246.553 104.669C246.998 104.416 247.43 104.044 247.849 103.557C248.268 103.07 249.114 101.998 250.424 100.368C251.733 98.7382 252.73 97.4847 253.387 96.59C254.039 95.6998 254.546 95.0886 254.903 94.7431C255.582 94.0787 256.261 93.8484 256.932 94.061C257.602 94.2736 258.065 94.938 258.307 96.0408C258.484 96.8425 258.651 98.5477 258.748 101.148C258.845 103.747 258.982 105.896 259.18 107.601C259.251 108.216 259.396 108.69 259.621 109.027C260.044 109.66 260.238 110.015 260.212 110.09H260.216ZM255.216 102.711C255.684 102.862 255.939 102.875 255.984 102.746C256.098 102.392 256.054 100.581 255.759 97.312C255.715 96.8071 255.679 96.5502 255.662 96.5458C255.644 96.5413 254.992 97.2854 253.744 98.7957C252.496 100.31 251.861 101.174 251.799 101.373C251.795 101.396 251.786 101.413 251.782 101.435C251.751 101.533 251.848 101.613 252.068 101.679C252.121 101.701 252.174 101.728 252.227 101.75C252.884 101.958 253.537 102.166 254.193 102.383C254.537 102.494 254.881 102.6 255.225 102.715L255.216 102.711Z" fill="white"/>
<path d="M275.28 101.446C275.368 101.255 276.85 101.782 279.689 103.155C280.09 103.346 280.491 103.541 280.893 103.736C283.058 104.808 284.477 105.884 285.169 106.889C285.544 107.434 285.765 108.027 285.84 108.67C285.91 109.312 285.769 109.954 285.421 110.592C284.843 111.655 283.82 112.257 282.374 112.43C281.558 112.532 281.118 112.656 281.051 112.784C280.981 112.913 281.034 113.776 281.17 115.358C281.307 116.943 281.413 117.944 281.519 118.374C281.625 118.803 281.863 119.282 282.237 119.809C282.608 120.336 282.744 120.686 282.652 120.859C282.471 121.177 281.726 120.96 280.416 120.234C279.685 119.831 279.213 119.335 279.001 118.737C278.79 118.144 278.675 117.103 278.64 115.61C278.604 114.122 278.512 113.143 278.393 112.687C278.194 111.938 277.736 111.385 277.017 111.03C276.651 110.849 276.369 110.849 276.166 111.022C275.968 111.199 275.641 111.757 275.187 112.696C274.733 113.635 274.486 114.441 274.438 115.11C274.42 115.366 274.482 115.708 274.614 116.137C274.746 116.567 274.804 116.806 274.777 116.859C274.658 117.098 274.169 117.001 273.309 116.584C272.568 116.221 271.823 115.867 271.074 115.517C270.368 115.185 269.888 114.932 269.65 114.742C269.407 114.552 269.336 114.339 269.442 114.104C269.504 113.967 269.782 113.887 270.271 113.869C270.761 113.852 271.135 113.719 271.391 113.462C271.647 113.205 272.149 112.257 272.908 110.614C273.397 109.595 273.891 108.577 274.385 107.558C275.381 105.392 275.893 104.068 275.919 103.581C275.946 103.093 275.827 102.651 275.571 102.247C275.315 101.844 275.214 101.579 275.275 101.446H275.28ZM282.647 109.436C282.727 109.281 282.806 109.13 282.886 108.975C283.243 108.293 283.256 107.593 282.916 106.88C282.577 106.167 281.968 105.587 281.1 105.153C280.919 105.064 280.743 104.976 280.562 104.883C279.87 104.537 279.394 104.475 279.138 104.688C278.882 104.901 278.41 105.724 277.718 107.159C277.648 107.306 277.577 107.452 277.506 107.598C277.462 107.682 277.418 107.762 277.374 107.846C277.268 108.072 277.158 108.293 277.052 108.519C276.836 108.966 276.761 109.268 276.832 109.427C276.902 109.586 277.114 109.75 277.476 109.928C277.678 110.029 277.881 110.127 278.084 110.229C279.129 110.747 280.055 110.92 280.879 110.725C281.704 110.534 282.295 110.105 282.647 109.436Z" fill="white"/>
<path d="M299.71 127.476C299.014 128.433 298.612 129.137 298.493 129.584C298.379 130.032 298.418 130.47 298.612 130.909C298.806 131.347 298.85 131.631 298.753 131.763C298.604 131.967 298.158 131.786 297.413 131.236C296.981 130.917 296.549 130.603 296.117 130.289C296.011 130.209 295.91 130.129 295.804 130.049C294.124 128.849 293.326 128.189 293.44 128.025C293.551 127.861 293.864 127.808 294.371 127.87C294.878 127.932 295.279 127.87 295.561 127.698C296.068 127.387 296.756 126.612 297.625 125.372C297.969 124.876 298.193 124.278 298.29 123.574C298.383 122.87 298.449 120.987 298.374 117.896C298.352 116.873 298.251 116.129 298.083 115.664C297.678 114.517 297.475 113.923 297.501 113.888C297.695 113.582 298.987 114.18 301.328 115.779C301.447 115.859 301.562 115.938 301.681 116.022C302.532 116.612 302.867 117.037 302.691 117.289C302.655 117.342 302.497 117.395 302.219 117.453C301.941 117.511 301.73 117.643 301.584 117.861C301.337 118.215 301.178 119.867 301.015 122.79C300.971 123.565 301.011 123.999 301.134 124.088C301.258 124.176 301.769 124.066 302.669 123.751C305.032 122.936 306.43 122.307 306.813 121.794C306.972 121.581 307.047 121.293 307.029 120.934C307.012 120.576 307.029 120.363 307.073 120.301C307.197 120.133 307.779 120.434 308.806 121.222C310.411 122.458 311.099 123.229 310.892 123.485C310.759 123.654 310.385 123.68 309.767 123.565C309.15 123.45 308.537 123.454 307.915 123.578C306.729 123.813 304.988 124.358 302.726 125.248C301.403 125.771 300.398 126.519 299.706 127.481L299.71 127.476Z" fill="white"/>
<path d="M325.401 237.823C325.401 238.027 324.471 238.129 322.611 238.129L322.267 238.138H321.579C320.887 238.138 320.538 238.022 320.538 237.792C320.538 237.717 320.745 237.526 321.16 237.221C321.574 236.915 321.839 236.587 321.949 236.229C322.059 235.874 322.117 234.727 322.117 232.792C322.117 230.856 322.033 229.691 321.861 229.297C321.733 229.014 321.451 228.828 321.006 228.743C320.56 228.659 320.34 228.562 320.34 228.46C320.34 228.323 320.494 228.19 320.807 228.057C322.117 227.494 322.959 227.211 323.334 227.211H323.466C323.629 227.211 323.752 227.295 323.832 227.459C323.911 227.623 323.955 227.986 323.955 228.544L323.938 228.898C323.933 229.018 323.929 229.138 323.929 229.253L323.902 229.966L323.885 230.688V231.795L323.876 231.977V233.438L323.885 233.801V234.169L323.911 235.236C323.911 235.808 323.991 236.233 324.145 236.516C324.299 236.8 324.546 237.057 324.886 237.278C325.225 237.5 325.393 237.681 325.393 237.814L325.401 237.823Z" fill="white"/>
<path d="M321.189 257.572C322.093 257.572 322.834 257.311 323.407 256.784C323.738 256.478 323.989 256.119 324.161 255.712C324.329 255.304 324.417 254.954 324.417 254.662C324.417 254.299 324.249 254.122 323.919 254.122C323.866 254.122 323.764 254.139 323.623 254.17L323.46 254.21C323.257 254.272 323.085 254.317 322.944 254.352C322.803 254.383 322.539 254.401 322.151 254.401C321.763 254.401 321.366 254.303 320.965 254.104C320.559 253.905 320.228 253.657 319.968 253.347C319.399 252.682 319.117 251.876 319.117 250.924C319.117 249.972 319.439 249.157 320.078 248.479C320.718 247.801 321.551 247.465 322.578 247.465C323.782 247.465 324.77 247.956 325.532 248.935C325.837 249.325 326.084 249.83 326.273 250.446C326.463 251.066 326.555 251.708 326.555 252.368V252.598C326.555 254.21 326.123 255.583 325.263 256.717C324.858 257.249 324.342 257.696 323.707 258.059C323.072 258.422 322.406 258.604 321.705 258.604H321.339C320.854 258.604 320.44 258.489 320.096 258.259C319.928 258.143 319.84 258.019 319.84 257.891C319.84 257.661 320.105 257.545 320.634 257.545L320.903 257.572H321.198H321.189ZM324.554 250.818C324.554 250.153 324.36 249.573 323.976 249.073C323.592 248.572 323.187 248.32 322.759 248.32H322.539C322.062 248.32 321.67 248.563 321.357 249.05C321.044 249.538 320.885 250.113 320.885 250.778V251.114C320.885 251.783 321.053 252.377 321.383 252.895C321.714 253.413 322.155 253.67 322.702 253.67H322.768L322.843 253.661C323.301 253.661 323.703 253.475 324.042 253.108C324.382 252.74 324.554 252.301 324.554 251.805L324.571 251.641L324.58 251.393V251.23C324.562 251.066 324.554 250.928 324.554 250.818Z" fill="white"/>
<path d="M321.189 277.943C322.093 277.943 322.834 277.682 323.407 277.155C323.738 276.849 323.989 276.49 324.161 276.083C324.329 275.675 324.417 275.326 324.417 275.033C324.417 274.67 324.249 274.493 323.919 274.493C323.866 274.493 323.764 274.511 323.623 274.542L323.46 274.581C323.257 274.643 323.085 274.688 322.944 274.723C322.803 274.754 322.539 274.772 322.151 274.772C321.763 274.772 321.366 274.674 320.965 274.475C320.559 274.276 320.228 274.028 319.968 273.718C319.399 273.053 319.117 272.247 319.117 271.295C319.117 270.343 319.439 269.528 320.078 268.85C320.718 268.173 321.551 267.836 322.578 267.836C323.782 267.836 324.77 268.328 325.532 269.306C325.837 269.696 326.084 270.201 326.273 270.817C326.463 271.437 326.555 272.079 326.555 272.739V272.969C326.555 274.581 326.123 275.954 325.263 277.088C324.858 277.62 324.342 278.067 323.707 278.43C323.072 278.794 322.406 278.975 321.705 278.975H321.339C320.854 278.975 320.44 278.86 320.096 278.63C319.928 278.514 319.84 278.39 319.84 278.262C319.84 278.032 320.105 277.917 320.634 277.917L320.903 277.943H321.198H321.189ZM324.554 271.189C324.554 270.524 324.36 269.944 323.976 269.444C323.592 268.943 323.187 268.691 322.759 268.691H322.539C322.062 268.691 321.67 268.934 321.357 269.422C321.044 269.909 320.885 270.485 320.885 271.149V271.486C320.885 272.154 321.053 272.748 321.383 273.266C321.714 273.784 322.155 274.041 322.702 274.041H322.768L322.843 274.032C323.301 274.032 323.703 273.846 324.042 273.479C324.382 273.111 324.554 272.673 324.554 272.176L324.571 272.013L324.58 271.765V271.601C324.562 271.437 324.554 271.299 324.554 271.189Z" fill="white"/>
<path d="M324.687 290.331C324.687 290.003 324.211 289.839 323.254 289.839C321.79 289.839 320.732 290.087 320.07 290.579C319.779 290.791 319.603 290.898 319.537 290.898C319.369 290.898 319.281 290.782 319.281 290.552V290.37C319.281 289.724 319.396 289.175 319.625 288.727C319.762 288.457 319.965 288.324 320.229 288.324L320.41 288.333L320.772 288.382C320.904 288.395 321.102 288.4 321.367 288.4L321.57 288.382L322.2 288.355C322.341 288.351 322.822 288.346 323.642 288.346C324.462 288.346 325.211 288.395 325.89 288.488C326.256 288.537 326.437 288.652 326.437 288.834V288.975C326.437 289.294 325.198 292.647 322.716 299.034C322.57 299.406 322.293 299.592 321.891 299.592H321.693C321.411 299.592 321.212 299.508 321.102 299.344C321.054 299.273 321.027 299.122 321.027 298.892C321.027 298.259 321.636 296.766 322.853 294.427C324.069 292.085 324.678 290.72 324.678 290.331H324.687Z" fill="white"/>
<path d="M305.024 418.061C305.999 416.349 306.661 414.423 306.839 412.46C306.946 411.279 306.915 409.965 306.593 408.816C306.312 407.814 305.825 406.858 305.678 405.822C305.504 404.589 305.591 403.552 304.854 402.451C304.112 401.341 303.063 399.025 302.459 394.38C302.424 394.111 302.592 393.856 302.855 393.783C303.721 393.541 305.78 393.471 308.476 396.727C308.707 397.006 309.072 397.138 309.429 397.071C310.617 396.847 313.31 396.221 315.071 394.889C315.204 394.788 315.28 394.631 315.276 394.465C315.249 393.482 315.225 389.936 316.24 388.518C316.434 388.247 316.845 388.26 317.023 388.542C317.456 389.224 318.223 390.585 318.611 392.177C318.794 392.927 319.508 393.419 320.281 393.332C320.819 393.271 321.471 393.288 322.17 393.505C322.907 393.734 323.523 394.235 323.932 394.885C324.186 395.289 324.69 395.802 325.678 396.08C326.984 396.45 328.182 397.132 329.13 398.099C330.053 399.04 330.815 400.156 330.322 400.958C330.007 401.468 329.799 402.036 329.743 402.632C329.679 403.297 329.415 404.184 328.613 405.079C327.685 406.116 327.27 407.511 327.457 408.885C327.85 411.769 328.469 416.469 328.789 419.697C328.896 420.771 329.076 421.835 329.322 422.886C330.082 426.15 331.276 435.473 325.113 449.544C325.014 449.77 324.949 450.01 324.92 450.255C324.604 452.931 322.826 469.061 325.474 473.319C325.648 473.6 325.957 473.772 326.289 473.784C327.496 473.829 329.305 474.079 330.014 475.202C330.97 476.716 329.564 478.085 328.135 478.411C328.047 478.43 328.003 478.529 328.047 478.607C328.486 479.398 330.215 482.855 327.211 483.35C326.896 483.402 326.582 483.471 326.272 483.549C324.982 483.878 321.732 484.48 320.266 482.688C320.266 482.688 318.911 480.669 318.112 478.229C317.959 477.764 317.734 477.323 317.438 476.931C317.195 476.609 316.916 476.045 316.824 475.099C316.801 474.858 316.755 474.619 316.682 474.387C316.149 472.705 313.969 465.947 312.861 464.348C312.703 464.12 312.415 464.018 312.147 464.095C311.227 464.359 308.915 465.525 308.144 470.637C308.1 470.932 308.301 471.209 308.596 471.261C309.092 471.347 309.864 471.52 310.582 471.834C312.008 472.458 312.716 474.083 312.136 475.519C311.804 476.339 311.051 477.08 309.389 476.982C309.274 476.975 309.221 477.119 309.312 477.187C309.889 477.614 310.864 478.576 310.481 480.007C310.458 480.096 310.439 480.186 310.42 480.276C310.334 480.704 309.926 482.001 308.136 481.976C307.614 481.969 307.091 481.985 306.571 482.039C302.651 482.447 288.563 483.905 283.526 484.327C282.948 484.375 282.366 484.382 281.788 484.344C280.933 484.288 279.729 484.153 278.91 483.825C278.17 483.529 277.382 483.372 276.584 483.381C274.261 483.408 270.061 483.362 268.673 482.73C268.596 482.695 268.52 482.66 268.442 482.628C267.642 482.298 263.695 480.669 261.762 479.925C261.012 479.636 260.464 478.98 260.326 478.193C260.076 476.768 260.299 474.409 263.253 471.933C263.595 471.646 263.76 471.203 263.691 470.764C263.494 469.53 263.407 467.055 265.737 466.564C265.737 466.564 269.579 465.727 269.163 472.93C269.159 472.995 269.23 473.037 269.286 473.003C269.797 472.693 271.571 471.093 270.673 464.113C270.673 464.113 268.602 447.959 278.316 434.819C278.683 434.322 279.041 433.818 279.378 433.3C280.373 431.768 284.911 426.601 303.752 419.16C304.289 418.948 304.737 418.559 305.022 418.06L305.024 418.061Z" fill="white"/>
<path d="M113.938 388.449C113.356 387.503 113.044 386.491 113.302 385.439C113.602 384.214 114.423 383.188 115.53 382.583C116.296 382.165 117.19 381.375 117.491 379.915C118.37 375.666 121.155 370.1 119.359 365.734C118.016 362.473 113.297 366.189 112.043 367.598C111.634 368.057 111.183 368.479 110.701 368.861C110.027 369.395 108.854 370.448 107.165 372.399C107.085 372.491 106.955 372.524 106.843 372.478C103.403 371.097 99.6508 371 97.3258 371.261C96.8359 371.316 96.3852 370.986 96.2884 370.503C95.8438 368.301 94.4917 362.502 92.0621 359.505C90.3073 357.34 86.788 358.509 86.6781 361.293C86.6764 361.33 86.6755 361.367 86.6747 361.405C86.6581 362 86.5387 362.589 86.326 363.146C86.0949 363.753 85.7776 364.536 85.4559 365.178C85.0227 366.046 84.762 366.989 84.6958 367.956C84.5981 369.396 85.0009 370.604 84.7882 372.168C84.6592 373.118 84.6932 374.083 84.8884 375.022C85.1186 376.124 85.5292 377.606 86.2466 379.06C86.5631 379.701 86.6651 380.426 86.5282 381.127C86.088 383.393 85.8509 386.917 87.7286 392.752C87.9143 393.329 87.9971 393.935 87.9762 394.541C87.9483 395.345 87.8829 396.519 87.7295 397.595C87.6414 398.21 87.7155 398.839 87.9544 399.412C88.2046 400.013 88.6274 400.684 89.3213 400.998C89.8871 401.255 90.3997 401.614 90.8234 402.067C91.7204 403.026 93.0403 404.482 93.3192 405.042C93.3532 405.11 93.3872 405.177 93.4247 405.243C93.7089 405.754 94.7847 407.758 95.8839 410.762C95.9275 410.883 95.9755 411.001 96.0225 411.12C96.1106 411.342 96.2754 411.994 95.7532 412.99C94.3819 415.605 93.9809 418.621 94.7018 421.484C95.4228 424.35 96.8263 428.322 99.4512 433.74C99.9089 434.684 100.214 435.694 100.356 436.733C100.972 441.243 102.455 454.056 100.743 462.554C100.552 463.501 100.531 464.474 100.678 465.429C100.908 466.923 101.084 469.364 100.305 471.46C99.6674 473.253 98.9081 475.04 97.9709 476.696C97.3136 477.859 96.6746 478.835 95.462 479.455C94.2642 480.067 87.3111 482.39 90.0562 484.667C90.3003 484.869 90.6019 484.991 90.9175 485.02C92.5695 485.176 94.2276 485.275 95.8866 485.311C97.7992 485.354 100.992 486.026 102.37 484.386C103.511 483.028 104.078 480.866 104.72 479.26C104.72 479.26 104.965 478.648 105.264 477.88C105.756 476.62 106.093 475.305 106.289 473.966C106.364 473.451 106.505 472.799 106.764 472.025C107.015 471.274 108.023 471.134 108.459 471.794C109.15 472.839 110.528 474.176 113.243 475.627C114.11 476.09 113.8 477.402 112.819 477.423C111.938 477.441 111.069 477.493 110.344 477.602C109.469 477.734 108.662 478.152 108.054 478.796C107.178 479.722 105.966 481.348 106.512 482.824C106.682 483.282 107.118 483.585 107.606 483.594L117.57 483.77C117.584 483.77 117.599 483.77 117.613 483.77C117.78 483.765 118.946 483.745 120.011 484.088C120.597 484.277 121.031 484.774 121.161 485.377C121.163 485.387 121.165 485.399 121.168 485.41C121.374 486.332 122.124 487.035 123.056 487.189C124.225 487.383 126.832 487.684 130.195 487.269C131.13 487.153 131.912 486.501 132.194 485.602C132.243 485.446 132.289 485.283 132.327 485.12C132.424 484.709 132.779 484.411 133.201 484.387C134.781 484.301 138.644 484.079 143.131 483.759C143.846 483.708 144.564 483.699 145.28 483.732C147.634 483.837 151.346 484.323 153.431 482.983C156.04 481.305 158.585 478.639 160.667 476.356C162.717 474.109 165.332 471.043 165.232 467.795C165.232 467.795 165.139 459.844 154.136 469.617C154.053 469.691 153.923 469.617 153.946 469.508C154.182 468.359 153.516 464.474 153.137 463.548C150.024 455.946 147.789 447.105 146.914 438.927C146.545 435.465 146.159 431.949 145.017 428.641C142.665 421.827 138.156 415.55 133.172 410.409C128.571 405.665 125.858 399.089 120.584 394.997C119.566 394.208 118.59 393.367 117.675 392.46C116.576 391.371 114.891 389.996 113.935 388.445L113.938 388.449Z" fill="white"/>
<path d="M204.978 0C261.374 0 312.608 23.1597 349.798 60.5236C386.945 97.8387 410 149.3 410 205.957V442.621C410 499.274 386.945 550.74 349.798 588.051C312.608 625.41 261.374 648.574 204.978 648.574C148.626 648.574 97.3965 625.41 60.2015 588.051C23.0595 550.736 0 499.27 0 442.617V205.953C0 149.3 23.0595 97.8342 60.2015 60.5191C97.3921 23.1597 148.626 0 204.978 0ZM204.978 7.07769C150.552 7.07769 101.056 29.4358 65.1794 65.524C29.3027 101.564 7.0457 151.231 7.0457 205.953V442.617C7.0457 497.29 29.3027 547.011 65.1794 583.046C101.056 619.085 150.552 641.492 204.978 641.492C259.452 641.492 308.9 619.085 344.821 583.046C380.697 547.006 402.954 497.29 402.954 442.617V205.953C402.954 151.231 380.697 101.559 344.821 65.5196C308.895 29.4357 259.448 7.07769 204.978 7.07769Z" fill="white"/>
<path d="M204.984 16.7012C256.826 16.7012 303.928 38.0228 338.063 72.3173C372.203 106.612 393.38 153.879 393.38 205.956V442.621C393.38 494.649 372.203 541.965 338.063 576.26C303.924 610.554 256.826 631.876 204.984 631.876C153.186 631.876 106.089 610.554 71.9491 576.26C37.8096 541.965 16.6328 494.649 16.6328 442.621V205.956C16.6328 153.879 37.8096 106.612 71.9491 72.3173C106.089 38.0228 153.186 16.7012 204.984 16.7012ZM204.984 19.0574C153.843 19.0574 107.358 40.0956 73.6378 73.9649C39.9216 107.834 18.9784 154.535 18.9784 205.952V442.616C18.9784 494.033 39.9216 540.734 73.6378 574.603C107.354 608.472 153.843 629.511 204.984 629.511C256.169 629.511 302.658 608.472 336.375 574.603C370.091 540.734 391.034 494.033 391.034 442.616V205.956C391.034 154.539 370.091 107.839 336.375 73.9694C302.658 40.1001 256.169 19.0619 204.984 19.0619V19.0574Z" fill="white"/>
<path d="M82.8169 238.518H81.3707C79.8672 238.518 78.8135 238.487 78.2227 238.425C77.6274 238.363 77.332 238.226 77.332 238.018C77.332 237.92 77.4864 237.765 77.795 237.557C78.1036 237.349 78.2976 237.039 78.377 236.623C78.4563 236.211 78.496 234.891 78.496 232.672C78.496 230.453 78.4519 229.2 78.3682 228.907C78.2844 228.615 78.0992 228.363 77.8214 228.141C77.5393 227.924 77.3982 227.791 77.3982 227.747C77.3982 227.543 77.5481 227.415 77.8479 227.353C78.1477 227.291 79.0383 227.264 80.5242 227.264L80.8769 227.255C81.1106 227.251 81.3487 227.246 81.5868 227.238L82.667 227.211H83.0286C84.0559 227.211 84.6952 227.282 84.9509 227.415C85.3169 227.614 85.4976 228.128 85.4976 228.969C85.4976 229.288 85.4447 229.448 85.3433 229.448C85.2948 229.448 85.1229 229.328 84.8275 229.084C84.1617 228.535 83.2093 228.261 81.9704 228.261C81.3752 228.261 80.9872 228.447 80.802 228.819C80.5551 229.31 80.436 230.085 80.436 231.135C80.436 231.441 80.5374 231.653 80.7447 231.764C80.9475 231.875 81.2252 231.932 81.5736 231.932C81.9219 231.932 82.182 231.888 82.3584 231.799C82.5347 231.702 82.7199 231.538 82.9227 231.308C83.1256 231.078 83.2887 230.962 83.421 230.962C83.7472 230.962 83.9104 231.423 83.9104 232.344C83.9104 232.375 83.9104 232.411 83.9192 232.442C83.9192 233.31 83.8839 233.837 83.8134 234.036C83.7428 234.244 83.6282 234.346 83.4783 234.342C83.4606 234.342 83.2049 234.129 82.7111 233.7C82.4157 233.447 82.0409 233.323 81.578 233.323C81.115 233.323 80.7976 233.403 80.6168 233.567C80.436 233.731 80.3478 233.992 80.3478 234.351C80.3478 236.087 80.6477 237.079 81.2473 237.327C81.4766 237.42 81.8866 237.469 82.473 237.469C83.5312 237.469 84.4042 237.181 85.092 236.605C85.5109 236.255 85.7666 236.078 85.8548 236.078C85.943 236.078 85.987 236.162 85.987 236.326C85.987 237.181 85.7754 237.792 85.3477 238.16C85.0744 238.394 84.2366 238.514 82.8301 238.514L82.8169 238.518Z" fill="white"/>
<path d="M77.8286 256.706V256.418C77.8286 255.953 77.9389 255.718 78.1549 255.718C78.2563 255.718 78.4944 255.975 78.8648 256.484C79.9229 257.414 80.818 257.95 81.5499 258.088C82.1804 258.088 82.6918 257.924 83.0754 257.592C83.459 257.259 83.653 256.852 83.653 256.369C83.653 255.74 83.3708 255.213 82.8021 254.792C82.5199 254.584 81.8938 254.261 80.9282 253.822C79.9626 253.384 79.288 252.981 78.9089 252.613C78.318 252.042 78.027 251.382 78.027 250.633C78.027 249.703 78.3577 248.942 79.0191 248.348C79.2792 248.113 79.6231 247.91 80.042 247.741C80.4608 247.573 80.8885 247.484 81.325 247.484C81.7615 247.484 82.198 247.529 82.6345 247.617C83.071 247.706 83.4017 247.75 83.6266 247.75L84.0851 247.732C84.3982 247.732 84.601 247.887 84.698 248.193C84.795 248.499 84.8435 249.035 84.8435 249.796C84.8435 250.182 84.7685 250.372 84.6142 250.372C84.4599 250.372 84.2306 250.164 83.9176 249.748C83.6045 249.331 83.265 249.004 82.8991 248.756C82.5287 248.512 82.0702 248.388 81.5146 248.388C80.9591 248.388 80.5094 248.543 80.161 248.849C79.8127 249.154 79.6363 249.562 79.6363 250.062C79.6363 250.563 79.9053 251.001 80.4388 251.382C80.7122 251.572 81.3427 251.887 82.3347 252.325C83.3179 252.764 83.9969 253.158 84.3805 253.508C85.0463 254.128 85.377 254.894 85.377 255.807C85.377 256.719 85.0331 257.485 84.3452 258.11C83.6618 258.73 82.8153 259.04 81.8012 259.04H81.7748C81.3162 259.04 80.7915 258.978 80.2051 258.858C79.6143 258.739 79.2792 258.677 79.1999 258.677L78.9618 258.694L78.7325 258.721C78.4018 258.721 78.1637 258.553 78.027 258.216C77.8904 257.879 77.8242 257.375 77.8242 256.706H77.8286Z" fill="white"/>
<path d="M83.274 269.038C83.005 269.038 82.8154 269.202 82.7052 269.526C82.595 269.853 82.5377 270.531 82.5377 271.559L82.52 272.108V272.675L82.5112 273.233V274.061C82.5112 275.833 82.5641 276.944 82.6655 277.396C82.7669 277.852 82.9213 278.162 83.1153 278.326C83.5562 278.698 83.7766 278.911 83.7766 278.96C83.7766 279.172 83.5033 279.278 82.9521 279.278H82.692L82.423 279.27L80.5492 279.278C79.7467 279.278 79.3455 279.185 79.3455 278.999C79.3455 278.853 79.4954 278.681 79.7908 278.481C80.0862 278.282 80.2802 278.083 80.3684 277.874C80.5315 277.476 80.6153 276.696 80.6153 275.54L80.6329 274.973V273.025C80.6329 271.151 80.5933 270.066 80.5183 269.769C80.3993 269.313 80.1259 269.087 79.6982 269.087C78.9134 269.087 78.2344 269.441 77.6612 270.155C77.3482 270.54 77.1674 270.73 77.1145 270.73C76.969 270.73 76.894 270.544 76.894 270.172C76.894 268.963 77.0307 268.263 77.3041 268.077C77.4408 267.984 78.0669 267.936 79.1779 267.936H79.9804L80.2494 267.944H81.8631C84.3939 267.944 85.7475 267.984 85.9194 268.068C86.1751 268.188 86.303 268.759 86.303 269.778V270.039C86.303 270.478 86.2192 270.695 86.0473 270.695C85.9326 270.695 85.7431 270.518 85.4829 270.159C85.2228 269.8 84.9406 269.521 84.6364 269.326C84.3322 269.127 83.878 269.03 83.274 269.03V269.038Z" fill="white"/>
<path d="M86.7959 294.034C86.7959 294.836 86.6504 295.602 86.355 296.337C85.773 297.79 84.7413 298.778 83.2643 299.305C82.6029 299.539 81.7916 299.659 80.826 299.659H80.6144L80.4116 299.65H79.7899L79.3887 299.641H78.9786C77.2767 299.641 76.4258 299.522 76.4258 299.287C76.4258 299.141 76.5845 298.981 76.9064 298.809C77.2282 298.64 77.4311 298.366 77.5192 297.985C77.6074 297.608 77.6515 296.28 77.6515 293.999C77.6515 291.718 77.6074 290.389 77.5236 290.008C77.4399 289.627 77.2944 289.37 77.0871 289.233C76.6639 288.954 76.4478 288.777 76.4478 288.697C76.4478 288.533 76.5889 288.422 76.8755 288.374C77.1621 288.321 78.0483 288.294 79.5386 288.294L80.3719 288.285H80.7952C81.8622 288.29 82.7484 288.418 83.445 288.67C84.8251 289.175 85.7951 290.106 86.3506 291.456C86.646 292.192 86.7915 292.971 86.7915 293.799V294.03L86.7959 294.034ZM84.7016 294.149V293.835C84.7016 292.488 84.3665 291.377 83.6963 290.509C83.0262 289.64 82.1311 289.202 81.0112 289.202H80.7511C80.1911 289.202 79.8384 289.268 79.6973 289.406C79.5562 289.539 79.4857 289.8 79.4857 290.181V291.496L79.4945 291.629V292.023L79.5033 292.293V293.897C79.5033 296.532 79.5298 297.949 79.5783 298.144C79.6753 298.539 80.1118 298.738 80.8878 298.738H81.1479C82.184 298.738 83.0218 298.348 83.6611 297.573C83.9785 297.188 84.2298 296.7 84.4238 296.102C84.6134 295.505 84.7104 294.858 84.7104 294.154L84.7016 294.149Z" fill="white"/>
<g clip-path="url(#clip0_12_131)">
<path fill-rule="evenodd" clip-rule="evenodd" d="M198.533 178.39C198.28 178.416 198.136 178.385 198.075 178.442C197.828 178.679 197.591 178.926 197.385 179.2C195.703 181.422 194.443 183.855 193.769 186.566C193.394 188.087 192.993 189.567 191.769 190.665C191.167 191.206 191.105 191.866 191.594 192.51C192.046 193.108 192.123 193.727 192.01 194.454C191.583 197.232 191.115 200.011 190.822 202.805C190.524 205.646 190.637 208.501 191.198 211.326C191.336 211.017 191.408 210.703 191.424 210.388C191.609 206.47 192.283 202.645 193.43 198.887C194.032 196.918 194.495 194.897 194.86 192.871C195.606 188.747 196.357 184.623 197.756 180.653C198.013 179.916 198.26 179.179 198.527 178.39H198.533ZM139.791 327.662C140.337 328.374 140.83 329.126 141.432 329.791C142.435 330.894 143.485 331.956 144.544 333.008C146.936 335.385 149.636 337.271 152.892 338.292C154.585 338.823 156.272 339.395 157.923 340.045C159.888 340.818 161.812 341.7 163.761 342.519C164.281 342.741 164.826 342.916 165.376 343.061C169.573 344.164 173.802 343.684 178.019 343.282C178.343 343.251 178.647 343.04 178.966 342.911C178.95 342.777 178.935 342.643 178.92 342.509C176.955 342.267 174.99 341.87 173.02 341.818C169.234 341.71 165.669 340.828 162.192 339.369C160.834 338.797 159.348 338.534 157.923 338.122C156.385 337.679 154.744 337.441 153.33 336.746C149.456 334.854 145.737 332.688 142.965 329.229C142.199 328.27 141.134 327.776 139.791 327.662ZM133.958 205.872C133.814 205.841 133.67 205.81 133.531 205.78C133.094 206.929 132.503 208.043 132.251 209.228C131.669 211.976 131.253 214.76 130.774 217.528C130.569 218.714 130.342 219.899 130.188 221.095C129.993 222.621 129.689 224.168 129.741 225.694C130.008 233.39 130.373 241.087 130.095 248.794C130.065 249.675 130.008 250.495 129.391 251.207C128.846 251.835 128.851 252.511 129.231 253.279C130.312 255.465 130.234 257.687 129.381 259.944C129.175 260.496 128.979 261.269 129.206 261.723C129.864 263.043 129.761 264.404 129.782 265.775C129.864 271.868 129.951 277.962 129.998 284.055C130.008 285.132 129.782 286.21 129.73 287.292C129.694 288.019 129.581 288.829 129.843 289.458C130.445 290.932 130.594 292.458 130.738 293.999C130.918 295.943 131.006 297.902 131.16 299.845C131.484 303.856 131.829 307.861 132.873 311.774C133.326 313.475 134.174 314.965 135.177 316.749C135.177 313.944 135.45 311.506 135.116 309.15C134.55 305.165 134.036 301.185 133.82 297.164C133.773 296.278 133.372 295.417 133.202 294.53C133.11 294.051 132.981 293.453 133.177 293.061C133.984 291.442 133.768 289.834 133.403 288.179C131.891 281.395 131.484 274.544 132.127 267.615C132.431 264.357 132.652 261.089 132.811 257.815C132.997 253.97 133.084 250.124 133.171 246.273C133.187 245.608 133.156 244.84 132.842 244.293C131.932 242.716 132.04 241.144 132.379 239.458C132.626 238.236 132.698 236.958 132.693 235.705C132.683 233.236 132.575 230.766 132.492 228.302C132.477 227.854 132.503 227.318 132.276 226.977C131.284 225.472 131.623 224.044 132.333 222.57C133.367 220.425 133.979 218.172 133.964 215.765C133.938 212.466 133.958 209.166 133.958 205.872ZM191.65 307.47C193.178 306.181 193.214 304.675 193.111 303.067C192.91 299.974 192.808 296.871 192.71 293.772C192.52 287.741 192.19 281.704 192.247 275.673C192.293 271.301 192.355 266.955 192.103 262.579C191.769 256.846 191.686 251.088 191.65 245.345C191.604 237.417 190.894 229.493 191.372 221.554C191.444 220.338 191.306 219.106 191.259 217.879C191.141 217.868 191.028 217.863 190.91 217.853C190.735 219.466 190.493 221.075 190.39 222.694C189.953 229.519 189.567 236.349 189.135 243.175C189.017 245.041 189.181 247 187.468 248.546C188.523 249.201 188.965 249.928 188.991 251.036C189.156 257.929 189.408 264.821 189.639 271.714C189.654 272.229 189.721 272.745 189.762 273.26C189.912 275.033 190.179 276.807 190.189 278.58C190.205 282.89 190.153 287.205 190.03 291.514C189.922 295.303 189.505 299.092 190.678 302.809C191.074 304.067 190.915 305.299 190.092 306.408C189.618 307.047 189.397 307.794 189.968 308.475C190.621 309.248 190.678 310.145 190.673 311.068C190.657 312.733 190.591 314.403 190.606 316.068C190.621 317.445 190.647 318.831 190.796 320.198C191.146 323.337 191.614 326.466 191.949 329.606C192.062 330.678 191.985 331.791 191.851 332.869C190.904 340.54 190.92 348.247 191.084 355.948C191.12 357.67 190.951 359.083 189.552 360.258C188.615 361.042 188.78 361.908 189.922 362.372C190.884 362.758 191.429 363.439 191.738 364.305C192.041 365.155 192.329 366.068 192.324 366.955C192.309 371.362 193.024 375.811 191.774 380.167C191.727 380.327 191.733 380.513 191.733 380.683C191.697 384.936 191.573 389.189 192.139 393.431C192.391 395.303 192.448 397.215 192.437 399.107C192.401 404.917 192.201 410.722 192.242 416.531C192.278 421.991 192.52 427.455 192.705 432.914C192.792 435.497 192.916 438.085 193.132 440.663C193.276 442.389 193.61 444.096 193.888 446.039C194.171 445.715 194.294 445.642 194.304 445.555C194.52 443.328 194.767 441.106 194.911 438.874C195.014 437.327 194.942 435.77 194.999 434.219C195.235 427.785 195.508 421.351 195.724 414.913C195.899 409.68 196.012 404.453 196.13 399.22C196.156 398.128 196.125 397.035 196.074 395.947C195.811 390.318 195.554 384.688 195.251 379.064C195.138 377.002 194.855 374.945 194.726 372.883C194.675 372.048 194.608 371.115 194.922 370.383C195.729 368.48 195.642 366.604 195.318 364.64C194.742 361.181 194.191 357.722 194.469 354.18C194.582 352.757 194.551 351.283 194.315 349.881C193.209 343.303 193.379 336.689 193.857 330.095C194.294 324.054 194.361 318.038 193.739 312.016C193.569 310.356 193.507 308.645 191.661 307.48L191.65 307.47ZM140.172 200.887C140.496 203.841 140.836 206.795 141.149 209.754C141.453 212.615 141.288 215.528 141.875 218.358C142.013 218.363 142.152 218.368 142.296 218.374C142.389 217.966 142.538 217.564 142.569 217.157C142.718 215.265 142.888 213.373 142.95 211.481C143.037 208.826 143.402 206.228 144.086 203.661C144.323 202.769 144.647 202.042 145.629 201.64C146.653 201.661 147.116 202.372 147.322 203.362C147.656 204.991 147.996 206.62 148.33 208.249C148.397 208.563 148.469 208.883 148.716 209.197C149.112 207.089 149.426 204.986 149.379 202.836C150.861 203.321 152.141 204.455 152.481 205.847C153.216 208.857 153.952 211.847 153.803 215.018C153.515 221.106 153.793 227.189 154.158 233.272C154.785 243.67 154.646 254.073 154.42 264.481C154.317 269.363 154.472 274.26 154.682 279.142C154.862 283.447 155.259 287.746 155.608 292.04C155.685 293.009 155.973 293.958 156.154 294.917C156.426 296.381 156.802 297.835 156.94 299.314C157.249 302.613 158.71 305.067 161.719 306.573C163.051 307.238 164.327 308.011 165.602 308.784C166.081 309.073 166.564 309.434 166.909 309.872C168.653 312.073 170.849 312.934 173.601 312.279C176.384 311.619 179.074 312.078 181.702 313.027C183.729 313.759 184.506 315.151 184.171 317.403C181.836 318.208 179.475 318.455 176.97 317.898C175.077 317.481 173.112 317.182 171.183 317.197C166.636 317.233 163.272 314.981 160.109 312.052C157.722 309.841 156.395 307.176 155.835 304.021C155.649 302.959 155.186 301.943 154.873 300.897C154.672 300.242 154.43 299.582 154.338 298.907C153.895 295.664 153.345 292.427 153.114 289.169C152.666 282.864 152.419 276.544 152.064 270.234C151.817 265.816 151.524 261.398 151.262 256.98C151.195 255.831 151.169 254.681 151.108 253.537C150.969 250.727 150.835 247.918 150.67 245.108C150.639 244.608 150.475 244.113 150.11 243.603C149.996 244.196 149.832 244.783 149.786 245.381C149.328 251.351 149.055 257.32 149.765 263.29C149.909 264.486 150.074 265.692 150.094 266.894C150.151 269.76 150.094 272.631 150.151 275.503C150.192 277.57 150.346 279.632 150.439 281.694C150.501 283.07 150.603 284.447 150.567 285.818C150.47 289.509 150.814 293.164 151.339 296.814C151.565 298.402 151.637 300.01 151.859 301.598C152.203 304.057 152.815 306.449 154.039 308.629C154.883 310.124 155.855 311.547 156.73 313.027C159.199 317.192 163.056 319.249 167.609 320.172C169.97 320.651 172.336 320.961 174.481 322.208C175.18 322.615 176.142 322.564 176.97 322.765C178.133 323.048 179.316 323.285 180.437 323.698C181.774 324.193 182.484 325.327 182.798 326.678C183.014 327.6 182.726 328.002 181.795 328.044C178.935 328.157 176.091 328.26 173.246 327.559C169.913 326.734 166.482 326.296 163.154 325.461C159.723 324.6 156.868 322.693 154.78 319.79C152.208 316.218 150.382 312.269 149.055 308.073C148.222 305.433 147.62 302.763 147.255 300.01C146.941 297.623 146.365 295.267 145.892 292.901C145.218 289.499 145.115 286.05 145.125 282.596C145.125 280.008 145.136 277.441 144.59 274.879C143.855 271.43 143.963 267.904 143.901 264.393C143.834 260.599 143.644 256.81 143.587 253.016C143.531 249.108 143.598 245.196 143.562 241.283C143.546 239.731 143.418 238.185 143.33 236.633C143.171 233.823 143.011 231.009 142.831 228.199C142.754 227.014 142.626 225.833 142.492 224.302C141.53 225.797 141.576 227.173 141.556 228.431C141.443 235.04 141.458 241.654 141.443 248.268C141.432 251.887 141.396 255.511 141.484 259.13C141.576 262.924 141.854 266.713 141.941 270.502C141.977 272.157 141.947 273.868 141.592 275.472C140.954 278.359 141.139 281.173 141.628 284.029C141.957 285.952 142.384 287.89 142.415 289.829C142.44 291.277 142.024 292.772 141.587 294.174C141.288 295.128 141.216 295.824 141.818 296.726C142.363 297.546 142.692 298.603 142.831 299.593C143.14 301.804 143.469 304.026 143.135 306.284C143.052 306.83 143.371 307.48 143.618 308.031C144.014 308.908 144.565 309.717 144.945 310.599C145.557 312.022 146.031 313.501 146.669 314.908C147.018 315.682 146.864 316.352 146.638 317.068C146.015 319.058 146.056 319.141 147.63 320.414C149.096 321.6 150.434 322.847 151.509 324.481C152.831 326.492 154.729 327.92 157.059 328.91C160.742 330.467 164.527 331.462 168.457 332.049C169.64 332.224 170.772 332.714 171.95 332.946C174.136 333.369 176.343 333.699 178.534 334.085C179.701 334.292 180.859 334.534 182.119 334.776C181.862 335.776 181.394 336.163 180.622 336.194C180.277 336.209 179.933 336.199 179.588 336.194C176.384 336.075 173.174 335.983 169.97 335.807C168.946 335.751 167.933 335.513 166.924 335.297C164.461 334.771 161.986 334.276 159.553 333.632C158.129 333.255 156.699 332.761 155.413 332.059C152.743 330.606 150.146 328.992 148.088 326.688C147.327 325.837 146.591 324.935 146.015 323.956C142.379 317.728 139.992 311.052 139.251 303.851C138.48 296.304 137.76 288.751 137.091 281.194C136.926 279.312 136.911 277.389 137.05 275.508C137.415 270.677 137.312 265.863 136.983 261.032C136.633 255.929 136.597 250.804 136.309 245.701C135.918 238.803 136.18 231.906 136.273 225.008C136.289 223.977 136.242 222.936 136.129 221.91C135.63 217.435 136.283 213.095 137.497 208.79C137.965 207.14 138.187 205.419 138.464 203.717C138.639 202.645 138.799 201.594 139.678 200.856C139.843 200.867 140.002 200.882 140.167 200.892L140.172 200.887ZM206.372 439.642C206.588 434.286 206.819 429.12 206.999 423.95C207.143 419.815 207.246 415.676 207.323 411.541C207.359 409.531 207.313 407.515 207.282 405.505C207.189 399.643 207.086 393.777 206.994 387.915C206.968 386.188 206.865 384.461 206.942 382.74C207.179 377.832 206.685 372.981 206.047 368.13C205.749 365.851 205.631 363.552 205.363 361.268C205.152 359.469 204.844 357.68 204.576 355.886H204.088C203.676 359.047 203.26 362.202 202.848 365.356C202.627 367.063 202.38 368.769 202.195 370.481C202.097 371.388 202.035 372.311 202.051 373.223C202.195 381.043 202.462 388.859 202.503 396.679C202.575 410.423 202.452 424.166 202.529 437.91C202.56 443.601 202.905 449.287 203.11 454.978C203.11 455.071 203.188 455.164 203.362 455.556C207.488 442.853 212.487 430.827 220.728 420.326C219.761 421.042 218.788 421.759 217.683 422.578C217.621 422.125 217.523 421.759 217.533 421.398C217.616 418.64 217.749 415.887 217.796 413.129C217.811 412.289 217.729 411.412 217.492 410.613C216.896 408.603 216.638 406.546 216.746 404.479C216.911 401.303 216.649 398.174 216.299 395.019C216.067 392.978 216.067 390.874 216.263 388.828C216.89 382.172 217.271 375.538 216.031 368.913C215.579 366.485 215.244 364.037 214.787 361.609C214.463 359.877 214.524 358.191 214.987 356.49C215.831 353.402 215.851 350.273 215.625 347.087C215.414 344.117 215.625 341.117 215.62 338.132C215.62 336.416 215.594 334.694 215.532 332.977C215.388 329.121 215.43 325.286 216.067 321.461C216.217 320.579 216.268 319.584 216.016 318.744C215.172 315.908 215.198 313.011 215.646 310.191C217.322 299.634 217.708 289.03 217.245 278.379C217.148 276.09 216.777 273.807 216.474 271.528C216.134 268.976 216.654 266.491 216.911 263.976C217.394 259.176 217.827 254.372 218.135 249.557C218.325 246.634 218.243 243.69 218.289 240.762C218.3 240.04 218.207 239.262 219.015 238.798C219.843 239.252 219.627 240.015 219.611 240.649C219.565 242.479 219.318 244.314 219.385 246.144C219.627 252.98 220.023 259.81 220.229 266.651C220.306 269.28 220.038 271.925 219.91 274.559C219.73 278.235 219.493 281.905 219.349 285.581C219.02 294.097 219.38 302.598 219.817 311.099C219.997 314.537 220.26 317.976 220.388 321.419C220.476 323.713 220.29 326.018 220.419 328.307C220.686 333.194 220.758 338.065 220.373 342.952C220.244 344.597 220.506 346.277 220.578 347.937C220.666 350.004 220.789 352.072 220.815 354.134C220.856 357.583 220.702 361.036 220.861 364.48C221.134 370.28 221.623 376.064 221.952 381.858C222.096 384.441 222.075 387.029 222.127 389.616C222.178 392.374 222.24 395.127 222.276 397.885C222.348 402.942 222.404 408 222.466 413.057C222.512 416.732 222.456 420.413 222.631 424.089C222.903 429.955 222.95 435.812 222.435 441.663C222.343 442.75 222.43 443.848 222.353 444.936C222.317 445.477 222.24 446.117 221.936 446.524C220.846 447.988 219.647 449.37 218.264 451.055C217.739 444.926 218.048 439.039 217.436 432.832C217.142 433.461 216.957 433.78 216.839 434.126C215.347 438.374 214.524 442.776 213.712 447.189C213.619 447.694 213.568 448.215 213.562 448.73C213.526 453.561 213.501 458.391 213.485 463.216C213.485 463.814 213.557 464.412 213.742 465.015C216.973 456.396 221.509 448.725 228.443 442.637C230.835 440.539 234.61 438.111 236.735 437.379C233.34 442.029 229.955 446.421 228.16 451.72C228.258 451.782 228.361 451.844 228.464 451.901L231.272 447.158C231.391 447.179 231.509 447.199 231.627 447.22C231.802 449.978 231.596 452.751 231.622 455.86C232.028 455.355 232.301 455.112 232.455 454.813C236.071 447.844 240.577 441.472 245.531 435.409C246.477 434.255 247.475 433.141 248.473 432.033C248.72 431.76 249.059 431.579 249.682 431.105C249.44 431.847 249.363 432.218 249.208 432.553C247.655 435.822 246.05 439.064 244.533 442.348C243.545 444.488 242.645 446.663 241.781 448.854C240.325 452.535 238.869 456.221 237.517 459.943C234.996 466.876 233.181 473.985 232.275 481.321C232.234 481.656 232.157 481.991 232.105 482.29C229.755 483.285 227.528 482.455 226.303 480.13C225.48 478.573 225.197 476.862 225.146 475.13C225.043 471.97 225.007 468.81 224.945 465.644C224.935 465.077 224.945 464.51 224.637 463.84C224.452 464.319 224.236 464.788 224.081 465.278C222.857 469.186 222.06 473.166 221.689 477.254C221.535 479.011 220.995 480.738 220.537 482.46C220.249 483.533 219.73 483.832 218.608 483.6C217.322 483.331 216.047 483.002 214.802 482.579C213.027 481.976 211.381 481.898 209.725 483.012C207.498 484.517 205.168 484.533 202.709 483.404C199.695 482.017 196.665 481.919 193.615 483.543C192.643 484.058 191.424 484.131 190.303 484.332C189.418 484.486 188.775 484.084 188.338 483.275C187.119 480.996 185.771 478.78 184.65 476.455C178.909 464.603 171.24 454.267 161.102 445.818C157.121 442.503 152.913 439.528 148.459 436.889C148.037 436.642 147.646 436.348 147.306 435.961C158.844 438.776 168.73 444.699 178.086 452.494C177.058 447.612 175.617 443.286 173.971 439.018C172.336 434.775 170.165 430.811 167.855 426.821C168.154 427.022 168.462 427.202 168.74 427.424C172.449 430.337 175.226 434.069 177.783 437.972C180.776 442.549 183.323 447.369 185.416 452.432C185.565 452.787 185.75 453.128 186.157 453.458C186.177 453.22 186.239 452.978 186.218 452.741C185.215 441.09 185.576 429.404 185.205 417.738C185.02 411.99 184.979 406.242 184.794 400.494C184.763 399.494 184.516 398.442 184.104 397.53C183.503 396.2 183.245 394.88 183.724 393.519C184.783 390.519 184.686 387.446 184.619 384.327C184.495 378.579 184.531 372.826 184.588 367.078C184.608 365.068 184.346 363.191 183.235 361.485C183.081 361.248 182.983 360.969 182.834 360.722C181.965 359.289 181.985 357.897 183.035 356.562C183.827 355.557 184.022 354.428 183.94 353.159C183.842 351.68 183.919 350.19 183.919 348.566C181.08 348.314 178.472 348.061 175.864 347.85C166.086 347.071 156.606 344.973 147.497 341.282C144.272 339.973 141.669 337.813 139.488 335.194C137.955 333.353 136.685 331.286 135.414 329.245C134.108 327.157 133.027 324.92 131.69 322.858C130.399 320.863 129.885 318.646 129.489 316.383C129.159 314.506 128.969 312.635 127.616 311.114C127.287 310.743 127.122 309.996 127.236 309.501C128.182 305.444 127.333 301.505 126.618 297.541C126.089 294.602 125.718 291.638 125.343 288.679C125.25 287.952 125.286 287.163 125.476 286.457C126.104 284.148 126.166 281.828 126.047 279.451C125.816 274.915 125.79 270.368 125.538 265.832C125.302 261.646 124.844 257.47 124.561 253.284C124.448 251.567 124.484 249.835 124.561 248.113C124.664 245.747 124.695 243.417 124.052 241.097C123.866 240.427 123.959 239.582 124.191 238.912C124.977 236.592 124.972 234.308 124.293 231.968C124.113 231.339 124.021 230.56 124.216 229.957C125.955 224.616 126.557 219.075 127.308 213.553C127.554 211.734 127.961 209.935 128.254 208.12C128.352 207.507 128.444 206.857 128.352 206.254C128.187 205.171 128.609 204.439 129.499 203.975C130.363 203.527 130.872 202.81 131.356 202.011C131.922 201.083 132.554 200.186 133.223 199.325C134.581 197.578 136.33 196.438 138.552 196.155C140.136 195.954 141.731 195.645 143.315 195.686C145.866 195.748 148.222 196.737 150.459 197.892C152.512 198.949 153.659 200.769 154.235 202.996C155.222 206.805 155.711 210.615 155.372 214.595C155.094 217.899 155.289 221.255 155.397 224.585C155.562 229.586 155.845 234.576 156.056 239.577C156.246 244.113 156.39 248.655 156.591 253.191C156.838 258.815 157.064 264.445 157.414 270.064C157.758 275.57 158.221 281.075 158.7 286.571C158.869 288.514 159.163 290.458 159.553 292.37C161.035 299.623 165.865 304.598 174.002 305.815C177.33 306.315 180.715 306.423 184.192 306.717C184.248 306.346 184.351 305.975 184.356 305.598C184.413 301.057 184.454 296.51 184.511 291.968C184.521 291.143 184.439 290.391 183.883 289.71C183.266 288.952 183.189 288.06 183.415 287.096C184.711 281.694 184.403 276.276 183.677 270.827C183.431 268.961 183.549 267.043 183.523 265.146C183.503 263.594 183.533 262.079 182.469 260.723C182.14 260.3 182.186 259.372 182.381 258.785C183.225 256.238 183.41 253.614 183.472 250.969C183.585 245.861 183.703 240.747 183.749 235.638C183.765 233.86 183.631 232.076 183.467 230.302C183.348 229.024 182.793 227.905 181.815 227.008C180.936 226.204 180.859 225.611 181.445 224.585C181.615 224.286 181.851 224.029 182.042 223.745C182.906 222.482 183.343 221.095 183.405 219.549C183.58 215.358 183.827 211.167 184.032 206.976C184.079 206.001 184.115 205.022 184.11 204.042C184.084 199.238 184.629 194.531 186.188 189.953C186.573 188.819 186.769 187.618 187.036 186.443C187.366 184.994 187.247 183.628 186.512 182.277C185.766 180.901 186.008 180.586 187.515 180.092C188.075 179.906 188.682 179.576 189.058 179.133C190.611 177.287 192.077 175.369 193.584 173.493C194.423 172.452 194.778 171.287 194.613 169.957C194.587 169.73 194.582 169.498 194.582 169.266C194.567 167.735 194.819 167.431 196.249 167.755C197.257 167.982 198.008 167.709 198.821 167.193C208.285 161.193 219.015 164.93 224.755 172.627C226.915 175.524 228.237 178.617 228.371 182.288C228.525 186.535 229.076 190.773 228.531 195.026C228.495 195.284 228.464 195.541 228.402 196.016C227.666 195.387 227.656 194.681 227.569 194.046C227.096 190.639 226.663 187.221 226.175 183.808C226.056 182.963 225.882 182.097 225.578 181.308C224.832 179.385 224.05 177.462 223.15 175.607C222.79 174.864 222.122 174.261 221.54 173.642C220.599 172.648 219.627 171.689 218.639 170.74C218.31 170.421 217.893 170.194 217.24 169.73C217.749 171.946 218.12 173.782 218.608 175.586C219.262 178.009 219.282 180.468 219.236 182.947C219.138 188.237 219.071 193.521 218.994 198.81C218.984 199.423 218.994 200.037 218.994 200.645C218.876 200.645 218.758 200.65 218.639 200.655C218.495 199.129 218.336 197.604 218.212 196.078C217.878 192.01 217.585 187.943 217.22 183.875C216.896 180.267 216.386 176.694 215.136 173.256C214.73 172.137 214.092 171.354 213.038 170.915C212.091 170.524 211.299 170.859 210.996 171.843C210.759 172.606 210.661 173.416 210.569 174.215C209.828 180.669 208.99 187.113 208.414 193.583C207.868 199.707 207.611 205.857 207.21 211.997C207.133 213.198 207.004 214.404 206.85 215.6C206.793 216.033 206.593 216.445 206.372 217.152C206.14 216.631 205.95 216.399 205.939 216.152C205.77 211.677 205.585 207.197 205.487 202.723C205.389 198.356 205.363 193.985 205.343 189.613C205.327 186.798 205.338 183.979 205.405 181.164C205.451 179.339 205.456 177.535 205.003 175.545C204.108 176.122 203.944 176.921 203.671 177.633C201.727 182.716 200.657 187.994 200.06 193.387C199.685 196.758 199.309 200.13 198.893 203.496C198.363 207.8 198.409 212.105 198.795 216.409C199.134 220.214 198.949 223.977 198.383 227.756C197.818 231.529 197.89 235.313 198.599 239.087C198.851 240.432 198.882 241.824 199.047 243.19C199.253 244.902 199.448 246.613 199.736 248.309C200.106 250.5 200.019 252.665 199.541 254.82C199.016 257.166 199.067 259.496 199.618 261.826C200.173 264.192 200.477 266.579 199.998 269.002C199.546 271.286 199.556 273.6 199.937 275.869C200.749 280.73 199.721 285.493 199.335 290.293C199.283 290.916 198.769 291.514 198.414 292.092C197.746 293.195 197.756 293.633 198.913 294.102C200.06 294.561 200.41 295.34 200.544 296.443C200.893 299.294 201.377 302.129 201.655 304.985C201.799 306.459 201.629 307.97 201.578 309.465C201.495 311.877 201.408 314.29 201.31 316.702C201.176 319.991 201.459 323.234 202.056 326.477C202.406 328.379 202.365 330.358 202.442 332.307C202.56 335.292 202.56 338.277 202.75 341.256C202.817 342.323 203.234 343.38 203.584 344.411C203.748 344.906 204.129 345.324 204.412 345.777C204.546 345.741 204.674 345.71 204.808 345.674C204.952 344.679 205.23 343.679 205.209 342.689C205.132 339.014 204.978 335.338 204.808 331.663C204.772 330.864 204.597 330.07 204.443 329.281C203.846 326.234 204.288 323.203 204.546 320.172C204.839 316.677 205.173 313.187 205.559 309.697C205.682 308.578 205.605 307.531 205.235 306.48C204.463 304.294 204.412 302.108 205.178 299.886C205.389 299.273 205.379 298.52 205.266 297.866C205.034 296.474 204.998 295.108 205.513 293.788C206.217 291.994 206.207 290.169 205.723 288.365C205.065 285.88 205.327 283.452 205.97 281.044C206.33 279.689 206.438 278.359 206.32 276.956C205.405 266.332 205.41 255.717 206.397 245.087C206.865 240.056 206.912 234.988 207.133 229.936C207.164 229.199 207.133 228.462 207.133 227.575C208.136 228.003 207.925 228.71 207.951 229.271C208.105 232.37 208.29 235.473 208.352 238.576C208.522 246.799 208.65 255.021 208.753 263.244C208.804 267.342 209.257 271.389 210.147 275.379C210.61 277.451 210.579 279.477 209.972 281.508C209.844 281.947 209.705 282.416 209.741 282.859C209.962 285.55 210.255 288.231 210.476 290.922C210.553 291.886 210.595 292.875 210.486 293.829C210.342 295.102 210.255 296.319 210.744 297.556C211.248 298.824 211.032 300.144 210.836 301.469C210.646 302.763 210.605 304.077 210.548 305.387C210.368 309.516 210.224 313.651 210.044 317.78C210.003 318.697 209.808 319.61 209.808 320.527C209.849 331.626 209.864 342.72 210.008 353.819C210.06 357.727 210.456 361.624 210.661 365.532C210.975 371.501 211.392 377.476 211.52 383.451C211.752 394.205 212.261 404.943 213.099 415.665C213.357 418.929 213.326 422.217 213.362 425.496C213.367 426.151 213.254 426.919 212.904 427.45C210.579 430.976 208.897 434.811 207.303 438.693C207.195 438.956 207.05 439.198 206.912 439.446C206.891 439.482 206.819 439.482 206.372 439.631V439.642Z" fill="white"/>
<path fill-rule="evenodd" clip-rule="evenodd" d="M251.648 335.665C251.561 335.536 251.479 335.407 251.391 335.278C245.301 341.367 237.411 341.408 229.633 341.996V343.96C232.72 343.784 235.677 343.635 238.635 343.439C241.032 343.279 243.439 343.094 245.646 342.006C246.145 341.758 246.649 341.454 247.029 341.057C248.104 339.949 249.133 338.794 250.147 337.624C250.681 337.005 251.144 336.32 251.638 335.665H251.648ZM256.556 330.211C258.274 329.51 258.711 328.989 258.932 327.401C259.081 326.324 259.112 325.226 259.277 324.148C260.115 318.591 261.113 313.05 261.787 307.472C262.219 303.894 262.949 300.316 262.563 296.667C262.507 296.11 262.687 295.532 262.749 294.96C262.913 293.481 263.191 292.001 263.212 290.522C263.242 288.341 263.031 286.16 263.037 283.98C263.037 280.995 263.34 277.995 263.17 275.02C262.821 268.947 263.464 262.983 264.461 257.013C264.832 254.817 265.017 252.564 265.007 250.337C264.996 247.074 264.595 243.806 265.31 240.563C265.459 239.893 265.567 239.207 265.619 238.522C265.67 237.831 265.629 237.135 265.629 236.439C263.669 239.017 262.563 241.857 262.286 244.894C261.967 248.43 261.931 251.997 261.895 255.554C261.879 256.776 261.71 257.833 260.82 258.684C260.208 259.266 260.182 259.843 260.712 260.488C261.591 261.565 261.859 262.885 261.864 264.194C261.874 267.298 261.73 270.396 261.663 273.499C261.648 274.35 261.468 275.067 260.686 275.561C260.115 275.922 260.094 276.458 260.341 277.077C260.599 277.706 260.768 278.376 260.943 279.036C261.607 281.521 261.411 284.057 261.349 286.583C261.272 289.857 261.118 293.13 261.005 296.404C260.964 297.564 260.665 298.553 259.462 299.038C259.328 299.089 259.256 299.296 259.163 299.419C260.701 301.976 260.789 301.987 260.48 305.049C260.017 309.673 259.426 314.287 258.875 318.901C258.618 321.061 258.212 323.21 258.094 325.381C257.996 327.154 257.739 328.793 256.545 330.206L256.556 330.211ZM229.459 356.028C229.335 357.177 229.68 357.636 230.554 357.662C233.939 357.755 237.272 358.306 240.62 358.729C241.706 358.863 242.904 358.538 243.984 358.208C247.271 357.203 250.507 356.038 253.793 355.043C256.386 354.26 258.469 352.661 260.609 351.12C261.674 350.352 262.733 349.558 263.849 348.867C265.007 348.151 265.881 347.228 266.519 346.022C267.908 343.382 269.333 340.763 270.742 338.139C271.328 337.047 271.915 335.954 272.501 334.861C272.614 334.887 272.727 334.912 272.846 334.938C272.774 335.449 272.702 335.959 272.63 336.469C272.151 339.681 271.169 342.722 269.615 345.583C269.014 346.687 268.566 347.883 268.103 349.058C267.285 351.13 266.071 352.893 264.374 354.352C263.155 355.399 262.003 356.523 260.897 357.688C259.529 359.131 257.898 360.167 256.134 361.028C254.56 361.802 252.924 362.219 251.144 362.023C248.778 361.765 246.494 362.142 244.195 362.786C240.389 363.843 236.521 364.678 232.678 365.601C232.354 365.678 232.036 365.761 231.686 366.091C231.902 366.147 232.123 366.261 232.339 366.25C239.154 365.905 245.98 365.699 252.775 365.137C257.836 364.719 262.193 362.4 265.948 359.002C267.733 357.389 269.451 355.718 270.809 353.687C271.364 352.857 272.244 352.198 273.087 351.62C274.409 350.718 275.006 349.646 274.703 347.996C274.595 347.408 274.867 346.604 275.243 346.109C276.426 344.542 277.084 342.82 277.264 340.877C277.305 340.423 277.388 339.939 277.598 339.552C278.385 338.103 278.828 336.65 278.427 334.948C278.288 334.35 278.581 333.582 278.854 332.969C280.592 329.066 281.24 324.917 281.482 320.725C281.847 314.472 281.888 308.199 282.218 301.94C282.67 293.274 283.277 284.614 283.781 275.948C283.905 273.824 283.889 271.695 283.972 269.571C284.008 268.654 283.992 267.705 284.234 266.839C284.856 264.591 284.923 262.302 285.005 260.008C285.047 258.895 285.206 257.787 285.309 256.673C285.422 256.673 285.53 256.673 285.643 256.673C285.731 257.22 285.895 257.766 285.895 258.318C285.926 264.236 286.024 270.159 285.926 276.077C285.803 283.722 285.515 291.367 285.304 299.012C285.273 300.162 285.34 301.316 285.278 302.461C285.211 303.677 285.371 304.724 286.507 305.451C287.104 305.832 287.171 306.487 287.022 307.152C286.996 307.265 286.975 307.379 286.934 307.487C285.643 310.822 285.335 314.282 285.612 317.823C285.679 318.679 285.654 319.555 285.566 320.406C285.437 321.602 285.751 322.679 286.26 323.731C287.017 325.288 287.006 326.123 285.792 327.272C284.995 328.025 284.81 328.896 284.64 329.86C283.869 334.216 283.334 338.634 282.233 342.903C281.045 347.522 279.219 351.94 275.999 355.626C275.438 356.265 275.109 357.105 274.569 357.77C269.919 363.513 264.06 367.266 256.736 368.591C255.722 368.771 254.673 368.9 253.727 369.266C248.387 371.339 242.827 371.839 237.174 371.833C234.669 371.833 232.159 371.993 229.484 372.086C229.618 374.524 229.093 376.834 230.59 378.88C230.924 379.339 231.089 379.922 231.403 380.396C232.144 381.515 232.205 382.69 231.624 383.84C230.112 386.83 230.343 389.974 230.734 393.124C230.837 393.959 231.202 394.769 231.521 395.562C231.799 396.253 232.19 396.892 232.509 397.573C233.152 398.955 233.26 400.393 232.483 401.723C231.29 403.759 231.202 405.929 231.243 408.213C231.408 417.472 231.47 426.73 231.614 435.984C231.629 437.004 231.357 437.659 230.518 438.283C229.016 439.402 227.638 440.69 226.028 442.057C225.981 441.428 225.909 441 225.925 440.572C226.331 426.364 226.197 412.167 225.441 397.97C225.04 390.392 224.546 382.814 224.279 375.231C224.063 369.142 224.14 363.044 224.063 356.951C224.047 355.59 224.706 354.528 225.416 353.486C226.537 351.837 226.604 351.27 225.354 349.842C224.608 348.986 224.397 348.115 224.433 347.022C224.69 338.516 224.819 330.005 225.148 321.499C225.4 314.89 225.873 308.296 226.269 301.693C226.383 299.801 226.568 297.909 226.717 296.017C226.737 295.733 226.82 295.414 226.732 295.161C226.069 293.274 226.573 291.429 226.768 289.542C227.036 286.975 227.185 284.382 227.164 281.804C227.123 276.345 226.892 270.886 226.82 265.421C226.717 257.658 226.665 249.894 226.635 242.13C226.624 239.775 226.593 237.398 226.866 235.068C227.833 226.768 227.9 218.432 227.91 210.097C227.91 208.519 227.977 208.303 228.795 206.957C228.924 207.89 229.109 208.591 229.109 209.287C229.073 217.334 229.026 225.381 228.944 233.429C228.867 240.795 229.206 248.146 229.721 255.487C229.947 258.699 230.117 261.916 230.266 265.133C230.312 266.138 230.467 267.055 231.074 267.885C232.03 269.2 231.902 270.53 231.171 271.932C230.842 272.561 230.642 273.324 230.621 274.036C230.456 280.588 230.343 287.14 230.209 293.697C230.189 294.625 230.168 295.507 230.786 296.316C231.346 297.053 231.074 297.878 230.626 298.579C230.009 299.548 229.901 300.59 229.88 301.703C229.777 307.626 229.639 313.55 229.479 319.468C229.453 320.432 229.489 321.184 230.477 321.782C231.346 322.308 231.269 323.324 231.074 324.288C230.549 326.876 230.06 329.474 229.618 332.077C229.474 332.912 229.51 333.778 229.459 334.706C230.585 335.206 231.681 335.175 232.73 335.041C237.123 334.485 241.392 333.5 245.476 331.67C249.534 329.85 251.561 326.613 252.497 322.473C252.976 320.354 253.423 318.23 253.907 316.117C254.704 312.663 255.084 309.23 254.081 305.724C253.809 304.781 253.835 303.616 254.117 302.672C254.822 300.316 254.925 297.924 254.997 295.512C255.12 291.377 255.162 287.233 255.378 283.103C255.522 280.351 256.031 277.618 256.149 274.865C256.242 272.644 256.072 270.396 255.851 268.179C255.748 267.117 256.021 266.236 256.494 265.396C256.967 264.555 257.106 263.705 257.121 262.761C257.147 261.153 257.265 259.544 257.343 257.936C257.415 256.457 257.163 255.065 256.237 253.874C255.563 253.008 255.568 252.116 256.304 251.379C257.456 250.224 257.605 248.811 257.785 247.301C258.238 243.517 259.241 239.857 260.815 236.382C261.329 235.248 261.622 234.155 261.545 232.908C261.463 231.547 261.581 231.413 262.908 231.361C263.818 231.325 264.359 230.774 264.986 230.284C269.672 226.655 274.749 226.49 280.057 228.634C281.554 229.237 282.644 230.372 283.359 231.784C284.692 234.418 285.705 237.151 285.633 240.182C285.592 241.96 285.659 243.744 285.607 245.528C285.592 246.11 285.376 246.688 285.247 247.27C285.103 247.27 284.964 247.265 284.82 247.26C284.738 246.61 284.553 245.961 284.594 245.316C284.861 240.883 283.267 236.975 281.225 233.197C280.793 232.392 280.283 231.629 279.208 231.196C279.327 234.527 279.445 237.738 279.558 240.945C278.637 240.032 278.622 238.888 278.401 237.81C278.097 236.352 277.82 234.882 277.46 233.439C277.208 232.423 276.709 231.521 275.742 230.861C274.625 231.557 273.88 232.423 273.484 233.733C272.707 236.285 272.336 238.883 272.203 241.532C272.136 242.852 271.997 244.167 271.868 245.481C271.843 245.729 271.699 245.966 271.441 246.198C270.716 244.11 270.788 241.96 270.829 239.831C270.87 237.666 271.056 235.506 271.184 233.186C269.302 234.197 268.643 235.919 268.052 237.63C267.661 238.764 267.44 239.965 267.27 241.156C266.488 246.626 265.979 252.07 266.905 257.622C267.82 263.086 267.543 268.643 267.131 274.149C266.714 279.706 266.056 285.243 265.526 290.79C265.459 291.47 265.408 292.187 265.542 292.847C266.452 297.362 266.133 301.863 265.65 306.394C265.11 311.477 264.662 316.576 264.343 321.679C264.035 326.597 262.569 330.969 259.395 334.814C257.281 337.377 255.033 339.681 252.014 341.14C251.659 341.31 251.206 341.511 251.052 341.82C250.213 343.516 248.603 344.001 247.014 344.475C244.602 345.197 242.153 345.815 239.736 346.517C238.635 346.836 237.524 347.161 236.49 347.64C234.304 348.656 232.061 349.125 229.479 348.692C229.417 349.651 229.366 350.532 229.294 351.63C229.968 351.63 230.518 351.677 231.053 351.625C235.271 351.192 239.494 350.795 243.696 350.254C244.972 350.089 246.217 349.568 247.431 349.099C248.444 348.708 249.349 348.012 250.373 347.697C254.318 346.501 257.358 344.104 259.848 340.882C262.419 337.552 264.652 334.021 266.421 330.19C267.903 326.984 268.072 323.504 268.36 320.091C268.597 317.241 268.386 314.354 268.345 311.488C268.309 309.008 268.443 306.564 269.127 304.147C269.708 302.09 269.831 299.992 269.461 297.837C268.885 294.46 269.116 291.094 269.78 287.728C270.032 286.454 269.975 285.114 270.012 283.804C270.053 282.377 270.027 280.943 270.058 279.51C270.078 278.593 270.274 277.66 270.176 276.757C269.574 271.174 270.459 265.622 270.562 260.06C270.603 257.91 271.169 255.771 271.786 253.595C271.91 254.147 272.084 254.688 272.151 255.245C272.841 260.777 273.509 266.303 274.183 271.834C274.209 272.061 274.255 272.298 274.229 272.52C273.787 276.567 274.255 280.686 273.154 284.686C272.877 285.702 272.846 286.872 273.026 287.918C273.478 290.578 273.447 293.213 272.697 295.78C271.781 298.909 271.678 301.987 272.666 305.105C272.866 305.745 272.882 306.472 272.846 307.152C272.748 308.931 272.645 310.714 272.414 312.477C272.012 315.493 271.508 318.493 271.04 321.499C270.397 325.654 268.54 329.365 266.781 333.103C265.413 336.016 263.793 338.799 261.828 341.367C258.973 345.099 255.342 347.754 251.057 349.687C248.279 350.94 245.425 351.914 242.56 352.893C241.479 353.265 240.332 353.435 239.232 353.749C238.244 354.028 237.246 354.301 236.315 354.724C234.71 355.456 233.013 355.641 231.305 355.827C230.693 355.894 230.086 355.966 229.433 356.043L229.459 356.028Z" fill="white"/>
<path fill-rule="evenodd" clip-rule="evenodd" d="M239.755 477.361C239.158 478.335 238.69 479.269 238.062 480.073C237.301 481.042 236.344 480.949 236 479.779C235.635 478.542 235.377 477.155 235.552 475.897C236.596 468.469 238.854 461.509 243.391 455.369C248 449.142 253.602 444.059 260.052 439.858C260.34 439.672 260.638 439.497 260.936 439.332C261.029 439.28 261.152 439.296 261.487 439.244C261.178 439.687 260.962 440.038 260.71 440.352C258.982 442.497 257.243 444.636 255.505 446.771C251.426 451.771 249.132 457.622 247.475 463.772C247.239 464.649 247.048 465.54 246.94 466.52C251.035 461.968 255.957 458.823 261.677 456.967C261.765 457.076 261.852 457.189 261.939 457.297C260.9 458.56 259.882 459.839 258.822 461.086C254.79 465.829 251.426 471.025 248.365 476.438C247.774 477.49 247.187 478.542 246.529 479.552C246.128 480.171 245.66 480.784 245.104 481.258C243.854 482.326 242.085 482.088 241.246 480.681C240.639 479.671 240.264 478.521 239.755 477.356V477.361Z" fill="white"/>
<path fill-rule="evenodd" clip-rule="evenodd" d="M143.066 454.206C152.633 455.531 160.781 459.753 167.915 466.413C167.761 466.058 167.643 465.681 167.452 465.351C164.706 460.619 161.522 456.196 158.014 452C157.479 451.355 156.985 450.68 156.666 449.752C156.944 449.834 157.273 449.85 157.499 450.01C163.857 454.438 169.608 459.464 173.8 466.119C176.876 471.001 179.684 475.981 181.356 481.544C181.593 482.332 181.922 483.095 181.212 483.786C180.481 484.503 179.602 484.363 178.799 484.008C177.493 483.43 176.238 482.74 174.859 482.049C174.422 482.399 173.98 482.734 173.553 483.1C172.349 484.131 171.31 484.085 170.328 482.858C169.793 482.188 169.381 481.42 168.913 480.698C164.711 474.208 159.907 468.223 154.207 462.98C151.152 460.165 147.788 457.784 144.275 455.588C143.776 455.273 143.318 454.892 142.84 454.541C142.917 454.428 142.989 454.314 143.066 454.201V454.206Z" fill="white"/>
<path fill-rule="evenodd" clip-rule="evenodd" d="M279.454 261.371C279.655 261.887 279.722 261.985 279.727 262.083C279.876 265.578 280.138 269.078 280.128 272.573C280.118 275.032 279.722 277.491 279.526 279.95C279.094 285.389 278.755 290.822 278.693 296.287C278.621 302.54 278.467 308.803 277.567 315.02C277.381 316.309 277.505 317.655 277.608 318.964C277.7 320.134 277.608 321.232 277.201 322.346C276.831 323.367 276.641 324.449 276.312 325.485C276.085 326.197 276.054 327.053 275.041 327.656C275.041 326.676 275.041 325.918 275.041 325.166C275.041 324.026 275.01 322.887 275.041 321.748C275.067 320.779 275.026 319.779 275.262 318.856C275.941 316.227 276.25 313.582 276.353 310.865C276.497 306.968 276.949 303.081 277.237 299.189C277.443 296.385 277.592 293.57 277.762 290.766C277.834 289.564 277.865 288.353 277.988 287.157C278.451 282.677 278.096 278.218 277.798 273.749C277.705 272.393 277.942 271.011 278.107 269.645C278.39 267.31 278.734 264.985 279.069 262.655C279.115 262.34 279.249 262.041 279.454 261.376V261.371Z" fill="white"/>
<path fill-rule="evenodd" clip-rule="evenodd" d="M219.164 213.546C219.267 214.376 219.39 215.201 219.478 216.031C219.714 218.418 219.935 220.81 220.162 223.202C220.182 223.429 220.265 223.671 220.218 223.882C219.76 225.991 220.09 228.078 220.234 230.187C220.337 231.728 219.776 233.156 218.999 234.45C218.855 234.455 218.716 234.466 218.572 234.471C218.289 233.703 217.95 232.955 217.744 232.166C217.327 230.589 217.281 229.032 217.909 227.455C218.192 226.748 218.305 225.872 218.192 225.119C217.734 222.016 218.104 218.954 218.433 215.887C218.516 215.113 218.572 214.335 218.639 213.562C218.814 213.556 218.994 213.546 219.169 213.541L219.164 213.546Z" fill="white"/>
<path fill-rule="evenodd" clip-rule="evenodd" d="M207.151 218.754C207.769 220.139 208.058 221.415 207.594 222.831C206.769 222.701 206.635 222.226 206.553 221.715C206.383 220.629 206.568 219.601 207.151 218.759V218.754Z" fill="white"/>
<path fill-rule="evenodd" clip-rule="evenodd" d="M278.851 257.178C278.645 255.958 278.625 254.858 278.98 253.52C279.723 255.188 279.681 255.922 278.851 257.178Z" fill="white"/>
<path fill-rule="evenodd" clip-rule="evenodd" d="M148.677 222.074C149.932 223.786 150.081 229.92 149.114 234.318C148.538 230.25 148.373 226.162 148.677 222.074Z" fill="white"/>
</g>
<defs>
<clipPath id="clip0_12_131">
<rect width="163.174" height="320.154" fill="white" transform="translate(123.934 164.221)"/>
</clipPath>
</defs>
</svg>
